<?xml version="1.0" encoding="utf-8"?>
<!-- Generator: Adobe Illustrator 25.4.1, SVG Export Plug-In . SVG Version: 6.00 Build 0)  -->
<svg version="1.0" id="Layer_1" xmlns="http://www.w3.org/2000/svg" xmlns:xlink="http://www.w3.org/1999/xlink" x="0px" y="0px"
	 viewBox="0 0 300 192" style="enable-background:new 0 0 300 192;" xml:space="preserve">
<style type="text/css">
	.st0{fill:#070606;}
	.st1{fill:url(#SVGID_1_);}
	.st2{fill:url(#SVGID_00000017478549027017012220000012044236218070820496_);}
	.st3{fill:url(#SVGID_00000092424674352612921390000015346648835022190247_);}
	.st4{fill:url(#SVGID_00000103235983432533018030000015208545149503814537_);}
	.st5{fill:url(#SVGID_00000103962028920142619270000014598568701960800664_);}
	.st6{fill:url(#SVGID_00000109026830795381430290000013791226343477858712_);}
	.st7{fill:url(#SVGID_00000138548877472799998920000010906361065998310555_);}
	.st8{fill:url(#SVGID_00000018915738300316318840000012810990513642986659_);}
	.st9{fill:url(#SVGID_00000039103467432075537110000008522235126618450879_);}
	.st10{fill:url(#SVGID_00000147199275493102718540000008515384604101016247_);}
	.st11{fill:url(#SVGID_00000116954379676107255340000016102166206473483692_);}
	.st12{fill:url(#SVGID_00000096780426677056979300000006027644700772468397_);}
	.st13{fill:url(#SVGID_00000064317240996948426590000013069730960586310295_);}
	.st14{fill:url(#SVGID_00000160187182519453327300000004962116154351921838_);}
	.st15{fill:url(#SVGID_00000145023888416335578760000001099725572475698830_);}
	.st16{fill:url(#SVGID_00000121279307140601902170000003096916088740592819_);}
	.st17{fill:url(#SVGID_00000146470868371718642070000010416142758320870312_);}
	.st18{fill:url(#SVGID_00000011019108567091225090000009642533364034908043_);}
	.st19{fill:url(#SVGID_00000036210223384258367870000007637218537341129864_);}
	.st20{fill:url(#SVGID_00000157296964934473783420000011726662961976659086_);}
	.st21{fill:url(#SVGID_00000008845028976091526990000011285956574442932904_);}
	.st22{fill:url(#SVGID_00000064349471773591377520000012744089541743518867_);}
	.st23{fill:url(#SVGID_00000021814022161198902370000009365929827244382390_);}
	.st24{fill:url(#SVGID_00000152231257484108193570000004725391855046495139_);}
	.st25{fill:url(#SVGID_00000136411716065354618370000006400883052609290132_);}
	.st26{fill:url(#SVGID_00000005979790162170718910000015091883205473162113_);}
	.st27{fill:url(#SVGID_00000034772196833679783330000017135512331855310988_);}
	.st28{fill:url(#SVGID_00000178884834915591095040000014200866974479431583_);}
	.st29{fill:url(#SVGID_00000065777628364636718590000013593245719369914782_);}
	.st30{fill:url(#SVGID_00000043429738349173475230000011210642523438184324_);}
	.st31{fill:url(#SVGID_00000152261822826952280010000017213801264737414546_);}
	.st32{fill:url(#SVGID_00000048468532880991865230000013745525722951900600_);}
	.st33{fill:url(#SVGID_00000076579582801671369590000007088815945204689849_);}
	.st34{fill:none;}
</style>
<path class="st0" d="M127.2,168.2h-4.9l-1.5-3.6h-8.1l-1.4,3.6h-4.8l7.3-18.1h5.2L127.2,168.2z M116.6,154.4l-2.7,7h5.6L116.6,154.4
	z"/>
<polygon class="st0" points="144.9,150.1 148.9,150.1 148.9,168.2 144.3,168.2 144.3,156.9 139.4,162.6 138.7,162.6 133.9,156.9 
	133.9,168.2 129.3,168.2 129.3,150.1 133.3,150.1 139.1,156.8 "/>
<path class="st0" d="M160.3,150.1c6.6,0,10,4.1,10,9.1c0,5.2-3.3,9.1-10.5,9.1h-7.5v-18.1H160.3z M156.8,164.9h3
	c4.5,0,5.9-3.1,5.9-5.7c0-3.1-1.7-5.8-6-5.8h-2.9L156.8,164.9z"/>
<polygon class="st0" points="188.7,154.1 179.3,154.1 173.6,148.4 194.4,148.4 194.4,169.2 188.7,163.5 "/>
<polygon class="st0" points="179.3,163.5 179.3,155.3 173.4,161.1 173.4,169.4 181.7,169.4 187.5,163.5 "/>
<radialGradient id="SVGID_1_" cx="190.58" cy="135.94" r="109.81" gradientTransform="matrix(1 0 0 -1 -2 175)" gradientUnits="userSpaceOnUse">
	<stop  offset="0" style="stop-color:#FF8709"/>
	<stop  offset="0.16" style="stop-color:#FC8309"/>
	<stop  offset="0.32" style="stop-color:#F27608"/>
	<stop  offset="0.49" style="stop-color:#E26207"/>
	<stop  offset="0.66" style="stop-color:#CB4505"/>
	<stop  offset="0.83" style="stop-color:#AE2003"/>
	<stop  offset="0.95" style="stop-color:#950001"/>
</radialGradient>
<path class="st1" d="M114.2,89c0.1,0.1,0.3-0.1,0.3,0s0.1,0.3,0.4,0.3s-0.1-0.4-0.1-0.6s0-0.7,0.2-0.7s0.1,0.5,0.3,0.7
	s0-0.8,0.1-1.2s0.1-1.3,0-1.2s-0.6,0-0.6,0.2s0,0.4,0,0.5c0.1,0.5-0.1,1-0.4,1.4C114.1,88.6,114,88.8,114.2,89
	C114.1,88.9,114.1,89,114.2,89z"/>
<radialGradient id="SVGID_00000168074957554144184170000013015833455485778337_" cx="190.58" cy="135.93" r="109.8" gradientTransform="matrix(1 0 0 -1 -2 175)" gradientUnits="userSpaceOnUse">
	<stop  offset="0" style="stop-color:#FF8709"/>
	<stop  offset="0.16" style="stop-color:#FC8309"/>
	<stop  offset="0.32" style="stop-color:#F27608"/>
	<stop  offset="0.49" style="stop-color:#E26207"/>
	<stop  offset="0.66" style="stop-color:#CB4505"/>
	<stop  offset="0.83" style="stop-color:#AE2003"/>
	<stop  offset="0.95" style="stop-color:#950001"/>
</radialGradient>
<path style="fill:url(#SVGID_00000168074957554144184170000013015833455485778337_);" d="M142.3,43.1c-0.4,0.1-0.9,0.2-1.3,0.5
	c-0.2,0.1-0.4,0.1-0.5,0c-0.2-0.1-0.5-0.5-0.5-0.3c0,0.2,0,0.2,0,0.4s-0.3-0.3-0.4-0.2s0,0.3,0.1,0.3c0.3,0.2,0.6,0.2,0.9,0.2
	c0.4-0.1,0.8-0.3,1.2-0.5c0.5-0.1,0.9-0.3,1.3-0.5c0.1-0.1-0.2,0-0.3,0.1C142.7,43,142.5,43.1,142.3,43.1z"/>
<radialGradient id="SVGID_00000070824337620659576170000009291914289520895375_" cx="190.58" cy="135.93" r="109.81" gradientTransform="matrix(1 0 0 -1 -2 175)" gradientUnits="userSpaceOnUse">
	<stop  offset="0" style="stop-color:#FF8709"/>
	<stop  offset="0.16" style="stop-color:#FC8309"/>
	<stop  offset="0.32" style="stop-color:#F27608"/>
	<stop  offset="0.49" style="stop-color:#E26207"/>
	<stop  offset="0.66" style="stop-color:#CB4505"/>
	<stop  offset="0.83" style="stop-color:#AE2003"/>
	<stop  offset="0.95" style="stop-color:#950001"/>
</radialGradient>
<path style="fill:url(#SVGID_00000070824337620659576170000009291914289520895375_);" d="M160.7,42.3c0.3-0.1,0.5-0.1,0.8,0
	c0.1,0,0.2,0,0.2,0c-0.4-0.2-0.8-0.3-1.3-0.3c-0.3,0-0.6,0-0.9,0c0.3,0.1,0.6,0.2,0.8,0.3C160.5,42.3,160.6,42.3,160.7,42.3z"/>
<radialGradient id="SVGID_00000011029045840896592390000003952534207468882873_" cx="190.6" cy="135.93" r="109.82" gradientTransform="matrix(1 0 0 -1 -2 175)" gradientUnits="userSpaceOnUse">
	<stop  offset="0" style="stop-color:#FF8709"/>
	<stop  offset="0.16" style="stop-color:#FC8309"/>
	<stop  offset="0.32" style="stop-color:#F27608"/>
	<stop  offset="0.49" style="stop-color:#E26207"/>
	<stop  offset="0.66" style="stop-color:#CB4505"/>
	<stop  offset="0.83" style="stop-color:#AE2003"/>
	<stop  offset="0.95" style="stop-color:#950001"/>
</radialGradient>
<path style="fill:url(#SVGID_00000011029045840896592390000003952534207468882873_);" d="M111.1,73.5c0,0,0.1,0.1,0.1,0l0.3-0.8
	c0-0.1-0.2-0.3-0.3-0.4c-0.1-0.2-0.1,0-0.1,0c0,0.1,0,0.2,0,0.3c0.1,0.3,0.1,0.6-0.1,0.8C111,73.4,111,73.5,111.1,73.5z"/>
<radialGradient id="SVGID_00000018221119240152800770000013768689340193990537_" cx="190.59" cy="135.93" r="109.82" gradientTransform="matrix(1 0 0 -1 -2 175)" gradientUnits="userSpaceOnUse">
	<stop  offset="0" style="stop-color:#FF8709"/>
	<stop  offset="0.16" style="stop-color:#FC8309"/>
	<stop  offset="0.32" style="stop-color:#F27608"/>
	<stop  offset="0.49" style="stop-color:#E26207"/>
	<stop  offset="0.66" style="stop-color:#CB4505"/>
	<stop  offset="0.83" style="stop-color:#AE2003"/>
	<stop  offset="0.95" style="stop-color:#950001"/>
</radialGradient>
<path style="fill:url(#SVGID_00000018221119240152800770000013768689340193990537_);" d="M112.1,66.2c-0.1,0,0,0.6,0,0.9
	c0.4-0.4,0.6-0.8,0.8-1.3c0.2-0.6,0.1-0.3,0-0.8c0-0.2-0.7,0.1-0.7,0.3c0,0.2,0.2,0.3,0.3,0.4l0,0C112.6,65.8,112.2,66.1,112.1,66.2
	z"/>
<radialGradient id="SVGID_00000156572247696060613440000009372816198271767193_" cx="190.58" cy="135.93" r="109.8" gradientTransform="matrix(1 0 0 -1 -2 175)" gradientUnits="userSpaceOnUse">
	<stop  offset="0" style="stop-color:#FF8709"/>
	<stop  offset="0.16" style="stop-color:#FC8309"/>
	<stop  offset="0.32" style="stop-color:#F27608"/>
	<stop  offset="0.49" style="stop-color:#E26207"/>
	<stop  offset="0.66" style="stop-color:#CB4505"/>
	<stop  offset="0.83" style="stop-color:#AE2003"/>
	<stop  offset="0.95" style="stop-color:#950001"/>
</radialGradient>
<path style="fill:url(#SVGID_00000156572247696060613440000009372816198271767193_);" d="M149,39.6c-0.2,0.1-0.5-0.1-0.9,0.1
	c-0.1,0,0.2,0.1,0.3,0.1c0.4,0,0.8,0,1.2-0.1c0.1,0,0.1-0.1,0.2-0.1s0-0.1,0-0.1C149.6,39.5,149.3,39.5,149,39.6z"/>
<radialGradient id="SVGID_00000166649459653506888320000003567508880476096170_" cx="190.57" cy="135.93" r="109.79" gradientTransform="matrix(1 0 0 -1 -2 175)" gradientUnits="userSpaceOnUse">
	<stop  offset="0" style="stop-color:#FF8709"/>
	<stop  offset="0.16" style="stop-color:#FC8309"/>
	<stop  offset="0.32" style="stop-color:#F27608"/>
	<stop  offset="0.49" style="stop-color:#E26207"/>
	<stop  offset="0.66" style="stop-color:#CB4505"/>
	<stop  offset="0.83" style="stop-color:#AE2003"/>
	<stop  offset="0.95" style="stop-color:#950001"/>
</radialGradient>
<path style="fill:url(#SVGID_00000166649459653506888320000003567508880476096170_);" d="M115.4,92.2
	C115.4,92.2,115.4,92.3,115.4,92.2c0.2,0,0.3-0.1,0.3-0.3c-0.1-0.5-0.2-1.2-0.2-1.6s-0.2-0.7-0.3-0.6s-0.3,0.1-0.2,0.2l0.3,0.2
	c0,0.1-0.1,0.1-0.1,0.2s0.3,0,0.3,0.4l0,0c0,0.2,0,0.4,0,0.5C115.4,91.5,115.4,91.9,115.4,92.2z"/>
<radialGradient id="SVGID_00000157991975995596470620000015703923510495809667_" cx="190.59" cy="135.9" r="109.76" gradientTransform="matrix(1 0 0 -1 -2 175)" gradientUnits="userSpaceOnUse">
	<stop  offset="0" style="stop-color:#FF8709"/>
	<stop  offset="0.16" style="stop-color:#FC8309"/>
	<stop  offset="0.32" style="stop-color:#F27608"/>
	<stop  offset="0.49" style="stop-color:#E26207"/>
	<stop  offset="0.66" style="stop-color:#CB4505"/>
	<stop  offset="0.83" style="stop-color:#AE2003"/>
	<stop  offset="0.95" style="stop-color:#950001"/>
</radialGradient>
<path style="fill:url(#SVGID_00000157991975995596470620000015703923510495809667_);" d="M170.1,118.7c-0.1,0,0.4,0,0.5-0.1
	S170.3,118.7,170.1,118.7z"/>
<radialGradient id="SVGID_00000128487606713016697510000010563757222376519565_" cx="190.62" cy="135.89" r="109.76" gradientTransform="matrix(1 0 0 -1 -2 175)" gradientUnits="userSpaceOnUse">
	<stop  offset="0" style="stop-color:#FF8709"/>
	<stop  offset="0.16" style="stop-color:#FC8309"/>
	<stop  offset="0.32" style="stop-color:#F27608"/>
	<stop  offset="0.49" style="stop-color:#E26207"/>
	<stop  offset="0.66" style="stop-color:#CB4505"/>
	<stop  offset="0.83" style="stop-color:#AE2003"/>
	<stop  offset="0.95" style="stop-color:#950001"/>
</radialGradient>
<path style="fill:url(#SVGID_00000128487606713016697510000010563757222376519565_);" d="M170.1,119.2
	C170.1,119.2,170.1,119.2,170.1,119.2c0.2-0.2,0.1-0.1,0.1-0.1S170.2,119.1,170.1,119.2z"/>
<radialGradient id="SVGID_00000133525444236660479040000003792599061909179572_" cx="190.58" cy="135.91" r="109.77" gradientTransform="matrix(1 0 0 -1 -2 175)" gradientUnits="userSpaceOnUse">
	<stop  offset="0" style="stop-color:#FF8709"/>
	<stop  offset="0.16" style="stop-color:#FC8309"/>
	<stop  offset="0.32" style="stop-color:#F27608"/>
	<stop  offset="0.49" style="stop-color:#E26207"/>
	<stop  offset="0.66" style="stop-color:#CB4505"/>
	<stop  offset="0.83" style="stop-color:#AE2003"/>
	<stop  offset="0.95" style="stop-color:#950001"/>
</radialGradient>
<path style="fill:url(#SVGID_00000133525444236660479040000003792599061909179572_);" d="M171.8,117c0,0.5,0,0.2,0.1,0
	c0.1-0.2,0.1-0.1,0.1-0.2S171.8,116.7,171.8,117z"/>
<radialGradient id="SVGID_00000052091775933712121850000010329689572911838379_" cx="190.58" cy="135.94" r="109.81" gradientTransform="matrix(1 0 0 -1 -2 175)" gradientUnits="userSpaceOnUse">
	<stop  offset="0" style="stop-color:#FF8709"/>
	<stop  offset="0.16" style="stop-color:#FC8309"/>
	<stop  offset="0.32" style="stop-color:#F27608"/>
	<stop  offset="0.49" style="stop-color:#E26207"/>
	<stop  offset="0.66" style="stop-color:#CB4505"/>
	<stop  offset="0.83" style="stop-color:#AE2003"/>
	<stop  offset="0.95" style="stop-color:#950001"/>
</radialGradient>
<path style="fill:url(#SVGID_00000052091775933712121850000010329689572911838379_);" d="M158.7,129.6L158.7,129.6L158.7,129.6
	c0,0.1-0.1,0.2-0.1,0.3l0,0c-0.1,0.2-0.1,1.1,0.5,0C159.4,129.3,159.1,129.8,158.7,129.6z"/>
<radialGradient id="SVGID_00000082344458735503919790000014918359339350030995_" cx="190.58" cy="135.95" r="109.82" gradientTransform="matrix(1 0 0 -1 -2 175)" gradientUnits="userSpaceOnUse">
	<stop  offset="0" style="stop-color:#FF8709"/>
	<stop  offset="0.16" style="stop-color:#FC8309"/>
	<stop  offset="0.32" style="stop-color:#F27608"/>
	<stop  offset="0.49" style="stop-color:#E26207"/>
	<stop  offset="0.66" style="stop-color:#CB4505"/>
	<stop  offset="0.83" style="stop-color:#AE2003"/>
	<stop  offset="0.95" style="stop-color:#950001"/>
</radialGradient>
<path style="fill:url(#SVGID_00000082344458735503919790000014918359339350030995_);" d="M172.9,117.1c-0.1,0.1-0.2,0.1-0.2,0.2
	s0.2,0,0.3-0.2c0-0.1,0.1-0.1,0.1-0.2C173.1,116.8,173,117,172.9,117.1z"/>
<radialGradient id="SVGID_00000147939653870452201350000007127102915376021895_" cx="190.58" cy="135.94" r="109.81" gradientTransform="matrix(1 0 0 -1 -2 175)" gradientUnits="userSpaceOnUse">
	<stop  offset="0" style="stop-color:#FF8709"/>
	<stop  offset="0.16" style="stop-color:#FC8309"/>
	<stop  offset="0.32" style="stop-color:#F27608"/>
	<stop  offset="0.49" style="stop-color:#E26207"/>
	<stop  offset="0.66" style="stop-color:#CB4505"/>
	<stop  offset="0.83" style="stop-color:#AE2003"/>
	<stop  offset="0.95" style="stop-color:#950001"/>
</radialGradient>
<path style="fill:url(#SVGID_00000147939653870452201350000007127102915376021895_);" d="M179.7,123.3c0.4-0.4,0.6-0.8,0.3-0.4
	c-1.2,1-2.1,1-3.3,2.2c-0.2,0.2,0.2-0.1,0.3-0.2c0.7-0.3,1.3-0.1,2.2-1.3C179.3,123.4,179.5,123.5,179.7,123.3z"/>
<radialGradient id="SVGID_00000085231663261061609050000009064969060200315029_" cx="190.58" cy="135.92" r="109.78" gradientTransform="matrix(1 0 0 -1 -2 175)" gradientUnits="userSpaceOnUse">
	<stop  offset="0" style="stop-color:#FF8709"/>
	<stop  offset="0.16" style="stop-color:#FC8309"/>
	<stop  offset="0.32" style="stop-color:#F27608"/>
	<stop  offset="0.49" style="stop-color:#E26207"/>
	<stop  offset="0.66" style="stop-color:#CB4505"/>
	<stop  offset="0.83" style="stop-color:#AE2003"/>
	<stop  offset="0.95" style="stop-color:#950001"/>
</radialGradient>
<path style="fill:url(#SVGID_00000085231663261061609050000009064969060200315029_);" d="M181.3,122.3c-0.3,0.3-0.5-0.4-0.9,0.7
	c-0.1,0.1-0.1,0.2,0.6-0.2C181.3,122.6,181.4,122.2,181.3,122.3z"/>
<radialGradient id="SVGID_00000037695016099856157470000003692735049172136333_" cx="190.58" cy="135.95" r="109.82" gradientTransform="matrix(1 0 0 -1 -2 175)" gradientUnits="userSpaceOnUse">
	<stop  offset="0" style="stop-color:#FF8709"/>
	<stop  offset="0.16" style="stop-color:#FC8309"/>
	<stop  offset="0.32" style="stop-color:#F27608"/>
	<stop  offset="0.49" style="stop-color:#E26207"/>
	<stop  offset="0.66" style="stop-color:#CB4505"/>
	<stop  offset="0.83" style="stop-color:#AE2003"/>
	<stop  offset="0.95" style="stop-color:#950001"/>
</radialGradient>
<path style="fill:url(#SVGID_00000037695016099856157470000003692735049172136333_);" d="M164.3,125.8c-0.2,0.2-0.1,0.3-0.1,0.3
	c0.1,0.2,0.8-0.3,0.6-0.4C164.6,125.7,164.4,125.6,164.3,125.8z"/>
<radialGradient id="SVGID_00000104697663624575091570000016223510477040403090_" cx="190.55" cy="135.93" r="109.79" gradientTransform="matrix(1 0 0 -1 -2 175)" gradientUnits="userSpaceOnUse">
	<stop  offset="0" style="stop-color:#FF8709"/>
	<stop  offset="0.16" style="stop-color:#FC8309"/>
	<stop  offset="0.32" style="stop-color:#F27608"/>
	<stop  offset="0.49" style="stop-color:#E26207"/>
	<stop  offset="0.66" style="stop-color:#CB4505"/>
	<stop  offset="0.83" style="stop-color:#AE2003"/>
	<stop  offset="0.95" style="stop-color:#950001"/>
</radialGradient>
<path style="fill:url(#SVGID_00000104697663624575091570000016223510477040403090_);" d="M165.1,125.8
	C165.1,125.8,165.1,125.8,165.1,125.8c0-0.1-0.1-0.1-0.1-0.1S165.1,125.8,165.1,125.8z"/>
<radialGradient id="SVGID_00000118373506065049666590000014762393863734578843_" cx="190.58" cy="135.93" r="109.8" gradientTransform="matrix(1 0 0 -1 -2 175)" gradientUnits="userSpaceOnUse">
	<stop  offset="0" style="stop-color:#FF8709"/>
	<stop  offset="0.16" style="stop-color:#FC8309"/>
	<stop  offset="0.32" style="stop-color:#F27608"/>
	<stop  offset="0.49" style="stop-color:#E26207"/>
	<stop  offset="0.66" style="stop-color:#CB4505"/>
	<stop  offset="0.83" style="stop-color:#AE2003"/>
	<stop  offset="0.95" style="stop-color:#950001"/>
</radialGradient>
<path style="fill:url(#SVGID_00000118373506065049666590000014762393863734578843_);" d="M170.7,120.9c-0.1,0-0.5-0.1-0.4-0.1
	l0.1,0.1c0,0,0.1,0,0.1,0c0,0.1,0,0.1,0,0.2c0.1,0.2,0.3-0.1,0.3-0.1S170.8,120.9,170.7,120.9z"/>
<radialGradient id="SVGID_00000116932726296268112980000013894490806551552170_" cx="190.58" cy="135.96" r="109.83" gradientTransform="matrix(1 0 0 -1 -2 175)" gradientUnits="userSpaceOnUse">
	<stop  offset="0" style="stop-color:#FF8709"/>
	<stop  offset="0.16" style="stop-color:#FC8309"/>
	<stop  offset="0.32" style="stop-color:#F27608"/>
	<stop  offset="0.49" style="stop-color:#E26207"/>
	<stop  offset="0.66" style="stop-color:#CB4505"/>
	<stop  offset="0.83" style="stop-color:#AE2003"/>
	<stop  offset="0.95" style="stop-color:#950001"/>
</radialGradient>
<path style="fill:url(#SVGID_00000116932726296268112980000013894490806551552170_);" d="M171.5,115.7
	C171.5,115.5,171.5,115.7,171.5,115.7c0,0.1,0.1,0.1,0-0.1c0-0.1-0.1-0.2-0.3-0.2c0,0,0,0-0.1,0c-0.1,0.1-0.3,0.3-0.5,0.5
	C170.4,116,171.5,115.8,171.5,115.7z"/>
<radialGradient id="SVGID_00000014621948147965384380000000134326322479190699_" cx="190.58" cy="135.97" r="109.85" gradientTransform="matrix(1 0 0 -1 -2 175)" gradientUnits="userSpaceOnUse">
	<stop  offset="0" style="stop-color:#FF8709"/>
	<stop  offset="0.16" style="stop-color:#FC8309"/>
	<stop  offset="0.32" style="stop-color:#F27608"/>
	<stop  offset="0.49" style="stop-color:#E26207"/>
	<stop  offset="0.66" style="stop-color:#CB4505"/>
	<stop  offset="0.83" style="stop-color:#AE2003"/>
	<stop  offset="0.95" style="stop-color:#950001"/>
</radialGradient>
<path style="fill:url(#SVGID_00000014621948147965384380000000134326322479190699_);" d="M181.9,121.9c0.2-0.2,0.4-0.3,0.6-0.5
	l-0.1,0.1C182.2,121.6,182,121.5,181.9,121.9z"/>
<radialGradient id="SVGID_00000147935901697738858380000009054350970159775905_" cx="190.58" cy="135.94" r="109.81" gradientTransform="matrix(1 0 0 -1 -2 175)" gradientUnits="userSpaceOnUse">
	<stop  offset="0" style="stop-color:#FF8709"/>
	<stop  offset="0.16" style="stop-color:#FC8309"/>
	<stop  offset="0.32" style="stop-color:#F27608"/>
	<stop  offset="0.49" style="stop-color:#E26207"/>
	<stop  offset="0.66" style="stop-color:#CB4505"/>
	<stop  offset="0.83" style="stop-color:#AE2003"/>
	<stop  offset="0.95" style="stop-color:#950001"/>
</radialGradient>
<path style="fill:url(#SVGID_00000147935901697738858380000009054350970159775905_);" d="M166.1,123.4c-0.2,0.2-0.4,0.7-0.5,0.7
	s-0.2-0.4-0.2,0.1c0,0.5,1,0.2,0.8,0.4s-0.1,0.1,0,0.2s0.2,0.1,0.2,0s-0.1-0.3,0-0.3c0.1,0,0.1,0.1,0.2,0.1l0,0
	c0.1,0.1,0.3,0,0.3-0.1l0,0c0.1-0.1,0.1-0.1,0.2-0.1h0.1c0.1-0.1,0.2-0.2,0.3-0.3c0.2-0.1,0.3-0.3,0.5-0.4c0.2-0.1,0.7-0.2,1-0.3
	c0.2-0.1,0.4-0.1,0.6-0.2c0,0,0.1,0,0.1,0c0.1-0.1,0-0.3,0.3-0.4c0.3-0.1-0.2-0.2-0.1-0.3s0.2-0.5,0-0.4s-0.3,0-0.1,0l0.3-0.1
	c0.1-0.1,0.2-0.2,0.2-0.3c0-0.1-0.1-0.2-0.2-0.3c0-0.1,0-0.2-0.1-0.2s-0.2,0.2-0.1,0.3c0,0.1,0,0.2,0,0.3c0,0,0,0.1-0.1,0.1l0,0
	c-0.1,0-0.1-0.1,0-0.1s0-0.2,0-0.2s-0.3,0.3-0.3,0.1s0.2,0,0.2-0.3c0-0.1-0.6-0.2-0.5,0.3c0,0.3-0.8,0.5-0.7,0.5s0.3,0.2,0.2,0.1
	s0,0.4-0.1,0.4c-0.5-0.3-0.4,0.9-0.7,0.2c0-0.1,0.1,0,0.2-0.2s-0.1-0.1-0.2,0s-0.2,0.2-0.3,0.2s0.3-0.2,0-0.3
	c-0.3-0.1-0.5,0-0.7,0.2c0,0,0,0.1-0.1,0.2s-0.7,0.2-0.7,0.1c-0.1-0.1,0,0,0.1-0.1s-0.4,0.2-0.3,0.3S166.3,123.2,166.1,123.4z
	 M167.4,123c-0.1,0-0.2,0-0.2,0c-0.1,0-0.1,0-0.1,0S167.5,123,167.4,123z M167.5,123.6c0.3-0.2,0.7-0.3,0.9-0.5
	c0.1-0.1,0.1-0.2,0.1-0.3c0.1-0.1,0.1-0.3,0.2-0.4c0-0.1,0.1-0.2,0.2-0.2c0.1-0.1,0.7-0.3,0.6-0.1s0,0.2-0.1,0.3s0.2,0.4,0.1,0.5
	s-0.2,0.1-0.3,0.2c-0.6,0.4-0.8,0.1-2,1c0,0-0.1,0-0.2-0.1S167.1,123.8,167.5,123.6z"/>
<radialGradient id="SVGID_00000176721794763019235150000003377644155029884348_" cx="190.58" cy="135.93" r="109.8" gradientTransform="matrix(1 0 0 -1 -2 175)" gradientUnits="userSpaceOnUse">
	<stop  offset="0" style="stop-color:#FF8709"/>
	<stop  offset="0.16" style="stop-color:#FC8309"/>
	<stop  offset="0.32" style="stop-color:#F27608"/>
	<stop  offset="0.49" style="stop-color:#E26207"/>
	<stop  offset="0.66" style="stop-color:#CB4505"/>
	<stop  offset="0.83" style="stop-color:#AE2003"/>
	<stop  offset="0.95" style="stop-color:#950001"/>
</radialGradient>
<path style="fill:url(#SVGID_00000176721794763019235150000003377644155029884348_);" d="M206.9,72.2c-0.1-0.1-0.3-0.2-0.2-0.4
	l0.1-0.4c0.1-0.2-0.2-0.3-0.4-0.4c-0.2-0.2-0.2-0.4-0.2-0.6c0.1-0.3,0-0.6-0.1-0.8c-0.1-0.2-0.2-0.4-0.2-0.6c0.1-0.3,0-0.7-0.1-1
	c-0.2-0.5-0.2-1.1-0.2-1.6c0-0.1-0.1-0.2-0.2-0.3c-0.2-0.4-0.3-0.8-0.4-1.2c0-0.3-0.1-0.6-0.2-0.8c-0.1-0.2-0.2-0.4-0.2-0.7
	c0-0.2,0-0.4-0.1-0.7c-0.2-0.7-0.5-1.3-0.7-2.1c0-0.1-0.1-0.2-0.2-0.3c-0.1-0.1-0.3-0.1-0.2-0.3s0.3-0.3,0.2-0.5
	c-0.3-0.4-0.5-1-0.4-1.5c-0.2-0.5-0.3-0.8-0.4-1.1c0-0.1,0-0.1-0.1-0.2c-0.2-0.2-0.3-0.5-0.3-0.8c0-0.2-0.2-0.4-0.3-0.6
	c-0.2-0.2-0.3-0.4-0.4-0.6c-0.1-0.1-0.1-0.2-0.1-0.3s-0.3,0-0.4,0s0.4-0.6,0.3-0.8c-0.1-0.3-0.3-0.5-0.5-0.7
	c-0.3-0.2-0.2-0.7-0.3-0.8c-0.2-0.2-0.3-0.4-0.3-0.7c0-0.2-0.1-0.4-0.2-0.6c-0.1-0.1-0.2-0.3-0.3-0.4l-0.5-0.6c0,0-0.1,0-0.1-0.1
	v-0.3c0-0.2-0.3-0.5-0.4-0.7c-0.1-0.1-0.1-0.2-0.2-0.3l-0.5-0.6c-0.2-0.3-0.4-0.6-0.6-0.8c-0.1-0.1-0.2-0.3-0.3-0.5
	c-0.1-0.3,0-0.8-0.3-1.1c-0.1-0.2-0.2-0.3-0.4-0.5c-0.1-0.4-0.4-0.6-0.8-0.8c-0.1-0.1-0.3-0.5-0.6-0.7c-0.3-0.1-0.5-0.3-0.5-0.6
	c0-0.2-0.2-0.4-0.3-0.5c-0.2-0.1-0.4-0.2-0.7-0.3c-0.3-0.2,0-0.6,0-0.9c0-0.2-0.2-0.4-0.4-0.5c-0.2,0-0.4-0.1-0.5-0.3
	c-0.5-0.6-0.9-1.2-1.4-1.8c-0.3-0.4-0.6-0.8-1.2-0.7c-0.2,0,0.1-0.3,0-0.4l-0.4-0.3c-0.1-0.1-0.4,0.2-0.5,0s-0.1-0.2-0.1-0.4
	s-0.1-0.3-0.2-0.4c-0.6-0.4-1.1-1.1-1.8-1.5c-0.1,0-0.1-0.1-0.1-0.2c-0.4-0.3-0.7-0.6-1.1-0.8s-0.8-0.3-1-0.7
	c-0.1-0.1-0.2-0.2-0.4-0.2c-0.3-0.1-0.5-0.2-0.8-0.4c-0.6-0.4-1.1-0.7-1.7-1.1c-0.4-0.3-0.8-0.4-1.3-0.4c-0.1,0-0.3-0.1-0.4-0.2
	c-0.3-0.4-0.6-0.7-1.1-0.9c-0.3-0.2-0.6-0.3-0.9-0.4l-1.9-0.9c-0.3-0.1-0.7-0.3-1-0.4s-0.4-0.2-0.6-0.3l-0.5-0.2
	c-0.4-0.1-0.9-0.3-1.2-0.6c-0.1,0-0.1-0.1-0.2-0.1c-0.4-0.1-0.8-0.4-0.9-0.8c-0.1-0.2-1-0.3-1.6-0.5c-0.3-0.1-0.6-0.2-0.9-0.2
	c-0.5-0.1-1.1-0.2-1.6-0.3c-0.3,0-0.5,0-0.8-0.1c-0.2,0-0.4-0.1-0.5-0.2c-0.4-0.3-1-0.5-1.5-0.5l-1.2-0.1l-0.9-0.1
	c-0.2,0-0.3,0-0.5,0.1c-0.2,0-0.3,0.1-0.4,0c-0.4-0.1-0.8-0.1-1.1-0.1c-0.6-0.1-1.1-0.1-1.7,0c-0.1,0-0.3,0-0.4,0
	c-0.5-0.1-1.1-0.2-1.6-0.2c-0.6-0.1-1.1,0-1.7,0.1c-0.2,0.1-0.8-0.3-1.2-0.3c-0.4,0-0.7,0-1.1,0c-0.7,0-1.3,0-2-0.1l-1.8-0.1h-1.7
	c-0.3,0-0.5,0-0.8,0c-0.5,0.1-1.1,0.1-1.6,0c-0.7-0.2-1.4-0.2-2.1,0c0,0-0.1,0-0.1,0c-0.3,0-0.6,0.1-0.8,0.4
	c-0.1,0.1-0.1,0.2-0.2,0.2c-0.1,0-0.2,0-0.3,0c-0.1,0,0,0-0.2-0.1c-0.2-0.1,0.2-0.1,0.3-0.1c0.1,0-0.1,0.1-0.1,0.1
	c-0.3,0-0.6,0-0.9,0.1l-0.3,0.2c-0.2-0.1-0.5-0.1-0.7,0c-0.4,0.1-0.8,0.2-1.3,0.2c-0.1,0-0.1,0-0.2,0l-0.3,0.3c0,0-0.1,0-0.1,0
	c-0.6-0.1-1.2,0.1-1.7,0.5c-0.6,0.3-1.3,0.6-2,0.6c-0.2,0-0.2,0.2-0.4,0.3c-0.4,0.1-0.9,0.1-1.3,0c-0.1,0-0.2,0-0.2,0
	c-0.3,0.1-0.6,0.2-1,0.2c-0.2,0-0.4,0.1-0.6,0.3c-0.2,0.2-0.4,0.4-0.7,0.6c-0.1,0.1-0.4-0.1-0.6,0c-0.2,0.1-0.3,0.1-0.5,0.2
	c-0.3,0.1-0.6,0.1-0.8,0.2c-0.1,0-0.1,0.1-0.2,0.1s-0.2-0.2-0.2-0.1c-0.2,0.2-0.6,0.3-1,0.3c-0.2,0-0.3,0-0.4,0.2
	c-0.3,0.2-0.6,0.5-0.9,0.5c-0.2,0.1-0.4,0.2-0.6,0.3c-0.2,0.1-0.3,0.2-0.4,0.4c-0.1,0.2-0.2,0.3-0.3,0.4s-0.5,0-0.7,0
	c-0.5,0-0.9,0.2-1.3,0.5c-0.2,0.1-0.3,0.3-0.3,0.5c0,0.2,0,0.3,0,0.5c0,0.1-0.2,0.1-0.3,0.1c-0.3,0-0.5,0.2-0.8,0.3
	c-0.4,0.1-0.8,0.3-1.1,0.6c-0.2,0.1-0.5,0.3-0.7,0.4c-0.3,0.2-0.8,0.4-0.8,0.5s-0.1,0.2-0.1,0.3s-0.3-0.1-0.3,0s0,0.3-0.1,0.4
	c-0.1,0.2-0.3,0.3-0.6,0.4c-0.1,0-0.3-0.1-0.4,0c-0.4,0.2-0.7,0.5-0.9,0.9c-0.1,0.2-0.2,0.3-0.4,0.3c-0.1,0-0.3,0-0.4,0.1
	c-0.3,0.1-0.7,0.3-0.7,0.7c0,0,0,0-0.1,0.1s-0.2-0.1-0.2,0c0,0.1-0.1,0.1-0.1,0.2c-0.2,0.4-0.5,0.7-0.9,0.8c-0.4,0.1-0.7,0.3-1,0.6
	c-0.4,0.3-0.7,0.6-1.1,0.9c-0.4,0.3-0.9,0.7-1.3,1.1c-0.5,0.5-1,1-1.5,1.5c-0.3,0.2-0.5,0.5-0.7,0.7c-0.1,0.1-0.1,0.3-0.1,0.3
	c-0.6,0.3-0.7,0.8-0.8,0.8c-0.3,0.1-0.6,0.2-0.7,0.5c-0.3,0.4-0.6,0.7-1,1.1s-0.6,0.7-0.8,1s-0.4,0.5-0.6,0.8c0,0.1-0.1-0.1-0.2,0
	l-1,1.4c-0.1,0.1,0.1,0.2,0.1,0.3c0.1,0.1-0.4,0-0.4,0.1c-0.2,0.2-0.3,0.4-0.4,0.6c-0.3,0.5-0.6,1-1,1.5c-0.3,0.5-0.7,1.1-1.1,1.6
	c-0.3,0.4-0.6,0.9-0.9,1.3c-0.3,0.3-0.6,0.7-0.8,1.1c-0.1,0.3-0.3,0.6-0.6,0.8c-0.2,0.3-0.3,0.6-0.5,0.8c-0.5,0.6-0.8,1.3-1,2
	c-0.2,0.5-0.3,1-0.4,1.5c-0.1,0.3-0.1,0.5-0.3,0.8c-0.2,0.3-0.3,0.7-0.3,1c0.1,0.8-0.4,0.8-0.3,1c0,0.5-0.1,1-0.3,1.4
	c-0.1,0.3-0.1,0.7,0,1l0,0c0,0.2,0,0.3,0.1,0.5c-0.3,0.3-0.5,0.8-0.6,1.2c0.1,0.3,0,0.5-0.2,0.7c-0.2,0.3-0.3,0.7-0.3,1.1
	c0,0.1,0.2,0.1,0.3,0.1s-0.3,0.1-0.4,0.3c-0.3,1.2-0.2,2.5,0.1,3.7c0.1,0.2,0.2,0,0.3,0s0,0.3-0.1,0.4c-0.3,0.3-0.5,0.6-0.6,1
	c0,0.5,0,1,0.1,1.5c0,0.2,0,0.5-0.1,0.7c-0.1,0.1-0.1,0.3-0.1,0.4c0,0.4,0.1,0.8,0.1,1.2c0,0.4,0.1,0.8,0.1,1.2
	c0,0.6-0.1,1.2-0.1,1.8c0,0.2,0,0.4,0,0.7c0,0.2,0.1,0.6,0.1,0.7s0.2,0.5,0.3,0.8c0.1,0.3,0.3,0.8,0.4,1.2c0.1,0.2,0.2,0.4,0.2,0.6
	c0.2,0.8,0.5,1.6,0.7,2.3c0.2,0.5,0.3,0.9,0.3,1.4c0,0.3,0.1,0.6,0.1,0.9c0,0.4,0.1,0.8,0.3,1.1c0.1,0.2,0.1,0.4,0.1,0.6
	c0,0.2,0,0.3,0,0.5c-0.1,0.3-0.2,0.5-0.3,0.8c-0.1,0.2-0.1,0.4,0,0.5c0.1,0.1,0.1,0.2,0.2,0.3c0.3,0.4,0.5,0.9,0.5,1.3
	c0.1,0.4,0.1,0.8,0.1,1.2c0,0,0,0.1,0,0.1c0.1,0.3,0.1,0.7,0.2,1c0,0.4,0.2,0.7,0.4,1c0,0.1,0.1,0.1,0.1,0.2c0,0.1-0.2,0.2-0.2,0.2
	c0,0.1,0.2,0.1,0.3,0.2c0,0.1,0,0.3,0.1,0.4c0.1,0.4,0.3,0.7,0.5,1.1c0.1,0.1,0.2,0.3,0.2,0.5c0,0.1-0.1,0.3,0,0.3
	c0.6,0.7,1.1,1.4,1.5,2.2c0.1,0.1,0.1,0.2,0.1,0.3c0,0.2,0.3,0.3,0.5,0.3c0,0,0.2,0.3,0.1,0.2c-0.2-0.1-0.4,0-0.4,0.1
	s0.1,0.8,0.2,0.9s0.4,0.1,0.3,0.2c-0.1,0.1-0.2-0.1-0.2,0.2s0.4,0.3,0.5,0.4s0.2,0.2,0.1,0.2c-0.1,0.1-0.2,0.1-0.3,0
	c-0.1,0-0.2-0.3-0.2,0c0.1,0.4,0.3,0.8,0.7,1.1c0.2,0.6,1.2,1.7,1.3,1.7c0.2,0,0.4-0.1,0.3,0c-0.1,0.1-0.2,0.4,0,0.5
	c0.4,0.2,0.7,0.5,0.9,0.9c0.6,0.7,1,1.4,1,1.3c0-0.2,0.1-0.4,0.2-0.5c0,0.1,0.1,0.2,0.1,0.2c0,0.3,0.1,0.6,0.4,0.7
	c0.2,0.1,0.4,0.4,0.5,0.6c0.1,0.4,0.8,0.4,0.8,0.4c0.2,0.3,0.4,0.7,0.5,1.2c0,0.1,0.3,0.3,0.4,0.5s0.4,0.3,0.6,0.5
	c0.2,0.1,0.3,0.2,0.4,0.4c0.3,0.3,0.5,0.7,0.8,1s0.5,0.6,0.7,0.8c0,0,0.1,0.1,0.1,0.1c0.1,0,0.2,0,0.3,0c0.1,0-0.1,0.3,0,0.3
	s0.4,0.2,0.4,0.2c0,0.1,0.2,0.6,0.6,0.6c0,0.1,0,0.2,0,0.3c0.4,0.3,0.8,0.7,1.1,1c0.2,0.2,0.4,0.4,0.5,0.6c0,0,0,0,0.1,0.1l0.3,0.1
	c0.1,0.3,0.3,0.6,0.5,0.8c0.2,0.2,0.4,0.3,0.7,0.5l0.7,0.6c0.3,0.2,0.7,0.6,0.6,0.5s0.1,0.2,0.2,0.2l0.4,0.1c0.1,0,0.4,0.7,0.4,0.8
	c0.2,0.1,0.4,0.2,0.6,0.4c0.7,0.6,1.2,1.5,1.3,1.5c0.5,0.3,1,0.7,1.3,1.1c0.1,0.1,0.2,0.2,0.3,0.3c0.4,0.4,1.1,0.6,1.4,1.2
	c0,0.1,0.1,0.1,0.2,0.1s0.4,0.3,0.5,0.5c0.2,0.3,0.6,0.6,1,0.7c0.1,0,0.2,0.1,0.3,0.1c0.3,0.2,0.7,0.3,1.1,0.4
	c0.4,0.1,0.9,0.2,1.4,0.3c0.7,0.2,1.3,0.4,2,0.5c0.1,0,0.3,0,0.4,0c0.4-0.1,0.6-0.1,0.8,0.3c0.1,0.1,0.2,0.3,0.3,0.3
	c0.3,0.1,0.7,0.4,0.8,0.4l1,0.1c0.2,0,0.4,0.1,0.5,0.3c0.2,0.3,0.5,0.5,0.9,0.6c0.1,0,0.2,0.1,0.3,0.1s0.1,0.4,0.2,0.4
	c0.3,0.2,0.7,0.3,1,0.4c0.5,0.1,0.9,0.2,1.4,0.3c0.1,0,0.2,0,0.3,0l1.8-0.1h1c0.2,0,0.5,0,0.8,0c0.2-0.1,0.5-0.2,0.6-0.2
	c0.1,0,0,0-0.1-0.2s0.5-0.1,0.5,0c0.1,0.5-0.2,0.5-0.1,0.5c0.4,0.2,0.9,0.2,1.3,0.1c0.1,0,0.3,0,0.4,0c0.3,0,0.5,0,0.8,0l0,0
	c0.2,0,0.4-0.1,0.6-0.2c0.3-0.1,0.5-0.1,0.8-0.1c0.3,0,0.6,0,0.9,0c0.3-0.1,0.6-0.2,0.9-0.2c0.4,0,0.7-0.2,1.1-0.4
	c0.1-0.1,0.2-0.1,0.3-0.1c0.4-0.1,0.9-0.1,1.3-0.3c0.4-0.3,0.8-0.5,1.2-0.8c0.3-0.1,1,0.1,1-0.1s0.1-0.3,0.2-0.4
	c0.2-0.2,0.5-0.4,0.7-0.5c0.3-0.1,0.6-0.1,0.4,0.7c-0.1,0.3,0.4-0.5,0.4-0.7s-0.1-0.5-0.1-0.6c0-0.1,0.9-0.5,1.5-0.9
	c0,0,0.3-0.3,0.4-0.2c0.2,0,0.3-0.1,0.5-0.1l0.1-0.1c0,0,0-0.1,0-0.1c0.1-0.2,0.6-1.1,0.8-1.3c0.1-0.2,1.1-0.8,1.2-1.2
	c0-0.3,0.7-1,0.7-1c0-0.4,0-0.8,0.1-1.2c0.1-0.1,0.1-0.3,0.1-0.5c0-0.2,0.1-0.5,0.2-0.7c0.1-0.2,0.1-0.3,0.2-0.5
	c0.2-0.4,0.3-0.9,0.1-1.4c-0.3-0.2-0.5-0.4-0.8-0.6c-0.3-0.2-0.5-0.6-0.4-1c0,0,0-0.1,0-0.1c0.1-0.2,0-0.2,0.1-0.2
	c0.1-0.1,0.1-0.2,0.1-0.2s-0.1-0.1-0.1,0l0,0c0-0.1,0-0.2,0-0.3c0-0.2-0.1-0.4-0.3-0.5c0-0.1-0.1,0-0.1-0.1c-0.1,0-0.1-0.1-0.1-0.1
	c0-0.1-0.1,0-0.1-0.1c0-0.1-0.1,0-0.1-0.1s0,0,0,0c-0.1,0-0.1,0.1-0.1,0.1c0,0.1-0.1,0.1-0.2,0.1c-0.2,0-0.4,0-0.5-0.1
	c-0.2-0.2-0.4-0.5-0.6-0.8c-0.1-0.3-0.5-0.5-0.8-0.4c-0.1,0-0.2,0-0.3,0c0,0,0,0-0.2,0c-0.2,0-0.3-0.1-0.4-0.2c0,0,0-0.1,0.1-0.1
	s0,0,0-0.1s0,0,0,0s-0.1,0-0.2,0c-0.1,0-0.2,0-0.4,0c-0.3,0-0.6-0.1-0.9-0.2c-0.1-0.1-0.2-0.5-0.3-0.6s-1-0.1-1.5-0.2
	c-0.5-0.1-1-0.2-1.5-0.4c-0.3,0-0.6,0.2-0.7,0.4c-0.4-0.5-0.9-0.3-1.3-0.3c-0.3,0-0.7,0-1-0.1c-0.1,0-0.3,0-0.4,0
	c-0.4,0.1-1.3,0.3-1.2,0.4s0,0.3,0,0.4c-0.1,0.1-0.1,0.3-0.2,0.4c-0.1,0.1-0.5,0-0.6-0.1s0-0.5,0-0.7c-0.5,0-0.9,0-1.3,0
	s-1-0.6-0.9-0.8c0.1-0.2,0.2-0.2,0.4-0.3l0,0c0.2-0.1,0.2,0,0.3-0.1c0.1-0.1,0.2-0.1,0.3-0.2c0.2-0.1,0.3-0.1,0.5,0
	c0.1,0,0-0.2-0.2-0.3c-0.1-0.1-0.3-0.1-0.5,0c-0.2,0.1-0.4,0.1-0.6,0.1c-0.1,0-0.3,0-0.4-0.1c-0.4,0-0.5,0.7-0.7,1
	c-0.5,0.1-1.1-0.2-1.2-0.8c0,0,0,0,0-0.1c-0.1-0.6-1.2-0.8-1.4-0.9c-0.2-0.1-0.1,0.3-0.1,0.5c0,0.2-0.1,0.4-0.3,0.4
	c-0.4,0.2-0.9,0.2-1.4,0.1c-0.2,0-0.3-0.1-0.4-0.3c-0.1-0.2-0.3-0.3-0.4-0.4c-0.1-0.1-0.3-0.3-0.4-0.4c-0.3-0.2-0.6-0.3-0.9-0.3
	c-0.1,0-0.2,0-0.3-0.1c-0.4-0.4-0.9-0.4-1.3-0.8c-0.4-0.3-1.1-0.8-1.6-1.2c-0.7-0.6-1.4-1.1-2-1.7c-0.3-0.3-0.6-0.6-0.9-0.9
	c-0.4-0.4-0.7-0.8-1-1.3c-0.2-0.3-0.4-0.6-0.8-0.6l-0.4-0.6c-0.1-0.5-0.5-0.9-1-1.1c0,0-0.1-0.1-0.1-0.1c0-0.3-0.2-0.6-0.4-0.7
	c-0.3-0.2-0.5-0.5-0.7-0.8c-0.1-0.1-0.2-0.2-0.3-0.4c-0.1-0.1-0.3,0.2-0.4,0.1c-0.5-0.3-0.9-0.7-1.2-1.1c-0.3-0.4-0.6-0.8-1-1.2
	c-0.2-0.2-0.4-0.4-0.5-0.6c-0.1-0.1-0.2-0.3-0.2-0.4c0-0.2-0.1-0.4-0.2-0.6c-0.1-0.1-0.2-0.3-0.3-0.4s0,0.2-0.1,0.3
	c-0.1,0.3-0.1,0.6,0.1,0.8c0.1,0.1-0.2,0.4-0.4,0.5c-0.1,0-0.2-0.1-0.2-0.1c-0.6-0.6-1.2-1.2-1.8-1.8s-1-1.1-1.4-1.6
	c-0.4-0.4-0.6-0.9-0.6-1.5v-1c-0.1,0.1-0.1,0.1-0.2,0.6c-0.1,0.2-0.2,0-0.3,0.1s-0.1-0.1-0.1-0.1c-0.1-0.4-0.2-0.7-0.4-1
	c-0.1-0.2-0.2-0.5-0.3-0.7c-0.2-1.1-0.3-2.1-0.5-3.2c0-0.1,0-0.1,0-0.2c0.1-0.6,0.1-1.2,0-1.8c0-0.8,0-1.7,0.1-2.5v-0.4
	c0-0.5,0.1-1,0.1-1.4c0-0.1,0-0.3,0-0.4c0-0.2-0.3,0-0.5,0c-0.3,0-0.2-0.4-0.2-0.6c0.1-0.2,0.1-0.4,0.2-0.7c0.1-0.2,0.1-0.4,0-0.6
	c-0.1-0.2-0.3,0.1-0.4,0.2l-0.9,0.4c-0.3,0.2-0.8,0.1-1-0.2l-0.2-0.2c-0.2-0.3,0-1,0-1.5c0-0.2,0.1-0.3,0.1-0.5
	c0.1-0.3,0.3-0.7,0.5-1c0-0.1,0.3-0.3,0.2-0.4c-0.2-0.1-0.3-0.2-0.5-0.3c-0.3-0.1-0.6-0.4-0.6-0.7c-0.1-0.4-0.1-0.8-0.1-1.2
	c0-0.6,0.1-1.1,0.2-1.7c0.1-0.6,0.1-0.9,0.1-1.3c0-0.4,0.1-0.6,0.4-0.6c0.1,0,0.3,0.1,0.3,0c0.1-0.3,0.2-0.7,0.2-1
	c0-0.7,0-1.3,0.2-2c0-0.1,0-0.2,0-0.3c0-0.2,0-0.4,0-0.6c0-0.8,0.1-1.7,0.5-2.5c0.2-0.6,0.4-1.1,0.6-1.7s0.4-0.8,0.6-1.3
	c0.2-0.4,0.4-0.8,0.6-1.2c0.2-0.2,0.4-0.4,0.6-0.6c0.2-0.2,0.3-0.3,0.4-0.4c0.1-0.1,0.2-0.2,0.2-0.2c0.4-0.3,0.8-0.7,1.1-1.2
	c0.1-0.2,0.2-0.4,0.4-0.5c0.1-0.1,0.2-0.3,0.3-0.5c0.2-0.3,0.4-0.5,0.6-0.8l1.1-1.1c0,0,0.1-0.1,0.1-0.1c0.2-0.6,0.8-0.7,1.2-1.1
	c0.2-0.1,0.4-0.2,0.6-0.2c0.3-0.5,0.7-1,1.2-1.4c0.2-0.2,0.4-0.3,0.6-0.5c0.3-0.3,0.6-0.6,1-0.8c0.1-0.1,0.2-0.2,0.3-0.3
	c0.2-0.1,0.3-0.3,0.5-0.4c0.3-0.2,0.7-0.4,1-0.7l1.8-1.2c0.7-0.5,1.3-0.9,1.9-1.4c0.4-0.2,0.8-0.4,1.1-0.6l0.5-0.3
	c0.1-0.1-0.1-0.3,0-0.4c0.1-0.1,0.2-0.2,0.4-0.2c0.7-0.3,1.4-0.7,2.1-0.9c0.4-0.2,0.8-0.3,1.3-0.4c0.2,0,0.3-0.1,0.5-0.2
	c0.6-0.3,1.2-0.7,1.9-1c0.6-0.2,1.1-0.4,1.7-0.6c0.2-0.1,0.6,0.1,0.7,0s0.4-0.3,0.7-0.5c0.6-0.2,1.2-0.4,1.7-0.8
	c0.1-0.1,0.4-0.1,0.4-0.2c0,0,0-0.1,0.1-0.2c0-0.4,0.2-0.8,0.6-0.9c0.5-0.3,1-0.5,1.6-0.5l0.8-0.1h0.2c0.6,0.1,1.2,0.1,1.9-0.1
	c0.2,0,0.4,0,0.6,0.1c0.1,0,0.3,0.2,0.3,0.3c-0.3,0.3-0.8,0.2-0.9,0.3l-0.5,0.5c0,0.1-0.3-0.2-0.3,0c-0.1,0.1-0.1,0.2-0.2,0.4
	c0,0.1-0.2-0.3-0.3-0.4l-0.6-0.4c-0.2,0-0.5,0-0.7,0.1c-0.2,0.1-0.5,0.1-0.7,0.1c-0.7,0.1-0.4,0.3-0.3,0.5c0.1,0.2,0.3,0.3,0.6,0.2
	c0.5-0.2,1.1,0.1,1.3,0.6c0,0.1,0.1,0.2,0.1,0.3c0,0.1,0,0.2,0.1,0.2c0.1,0.1,0-0.5,0.1-0.5c0.4,0,0.2,0.5,0.3,0.5
	c0.1,0,0.3,0.1,0.3,0l0.2-0.5c0-0.1,0.1,0,0.1,0s0,0.3,0.1,0.3c0.3,0,0.6,0,0.9-0.2l2.4-0.7l0.9-0.3c0.2,0,0.6,0.1,0.5,0.2l-0.9,0.9
	c-0.1,0.1,0,0.1,0.1,0.1c0.1,0,0.2,0,0.2-0.1l0.7-0.4c0.8-0.4,1.7-0.6,2.6-0.6c1.1-0.1,2.2,0.1,3.3,0c0.5,0,1,0,1.5,0
	c0.4,0,0.8,0.1,1.3,0.2c0.1,0,0.2,0,0.4,0c0.3-0.1,0.6,0,0.9,0.1c0.3,0.1,0.6,0.1,0.9,0.2c0.2,0.1,0.4,0.2,0.6,0.3
	c0.2,0.1,0.3,0.3,0.2,0.5c0,0,0,0.1,0,0.1l0.6-0.2c0.1,0,0,0.1,0,0.1l0.8,0.2l0.8,0.2c0.2,0.1,0.4,0.2,0.4,0.5
	c0,0.1-0.1,0.3-0.1,0.3c0,0.1,0,0.1,0.1,0.1c0.2,0.1,0.3,0.1,0.4,0.2l0.4,0.2c0.2,0,0.3,0.1,0.5,0.2l2.3,1.3
	c0.2,0.1,0.4,0.3,0.7,0.5c0.2,0.1,0.3,0.2,0.4,0.2s0.2-0.2,0.3-0.2c0.6,0,1.1,0.2,1.5,0.5c0.3,0.2,0.7,0.4,1,0.6
	c0.4,0.3,0.8,0.5,1.2,0.8c0.2,0.1,0.4,0.3,0.6,0.4c0.7,0.4,1.3,0.9,1.7,1.5c0.4,0.6,0.9,1,1.3,1.6c0,0,0.1,0.1,0.2,0
	s-0.1-0.1-0.1-0.2c-0.3-0.4-0.6-0.8-1-1.2c-0.4-0.4-0.7-0.9-0.9-1.5c-0.1-0.2,0.4-0.3,0.8-0.2c0.5,0.2,0.8,0.5,1.1,1
	c0.3,0.4,0.6,0.9,1,1.3l0.3,0.5c0,0,0.1,0.1,0.1,0.1c0.7,0.8,1.2,1.7,1.7,2.7c0.2,0.3,0.4,0.7,0.6,1s0.2,0.3,0.5,0.4
	c0.1,0-0.1,0.2-0.1,0.3c0.4,0.6,0.9,1.2,1.5,1.7c0.1,0.1,0.3,0.1,0.3,0.2c0,0.5,0.3,0.9,0.6,1.2c0.5,0.6,0.9,1.3,1,2
	c0.1,0.3,0.2,0.7,0.3,1c0.3,0.7,0.5,1.4,0.7,2.1c0,0.2,0.1,0.3,0.2,0.5c0.1,0.1,0.1,0.2,0.2,0.3c0.1,0.2,0.2,0.5,0.3,0.8
	c0,0.1,0.1,0.1,0.1,0.2c0.1,0.5,0.2,0.9,0.3,1.4c0.2,0.6,0.3,1.3,0.2,1.9c0,0.1,0,0.2,0,0.3c0.1,0.4,0.2,0.8,0.3,1.2
	c0.1,0.3,0.1,0.6,0.1,0.9c0.1,0.6,0.1,1.3,0.3,1.9c0.1,0.5,0.2,1,0.3,1.5c0,0.1,0,0.2,0.1,0.3l0.4,1.3c0.1,0.2,0.3,0.5,0.2,0.6
	c-0.2,0.4-0.2,0.8,0,1.1c0,0.1,0.2,0.1,0.2,0.2s-0.1,0.1-0.1,0.2c0,0.1,0.1,0.3,0.1,0.4c0,0.1,0,0.2,0,0.4c-0.2,0.5-0.3,1-0.2,1.6
	c0,0.1,0,0.3,0,0.4s0.5-0.5,0.5-0.3c-0.1,0.5-0.1,1.1,0.1,1.6c0.1,0.5,0.1,0.9,0,1.4c0,0.2,0,0.4,0,0.7c0.1,0.6,0,1.2-0.3,1.8
	c-0.1,0.2-0.2,0.5-0.2,0.7s0,0.4,0,0.7c0,0.5,0,1-0.1,1.5c-0.5,1.2-0.9,2.4-1.4,3.7c-0.4,0.9-0.7,1.8-0.9,2.8
	c-0.1,0.3-0.2,0.6-0.3,0.9c-0.2,0.5-0.4,1.1-0.6,1.6c-0.1,0.3-0.2,0.7-0.4,1c-0.4,0.7-0.8,1.4-1.2,2.2c-0.3,0.5-0.6,0.9-0.9,1.4
	c-0.1,0.3-0.3,0.5-0.5,0.7c-0.5,0.6-0.9,1.2-1.4,1.8c-0.3,0.4-0.6,0.8-0.9,1.3c0,0.1-0.1,0.1-0.1,0.2l-1.6,1.7
	c-0.1,0.1-0.1,0.1-0.2,0.2c-0.1,0.2-0.3,0.4-0.4,0.6c-0.1,0.1-0.3,0.6-0.6,0.8c-0.1,0.1-0.2,0.2-0.3,0.3c-0.4,0.4-1.1,1.1-1.1,1.1
	s0,0.1,0,0.1s0.1,0.3,0,0.2s-0.2,0-0.2,0c0,0,0-0.2,0-0.1l-0.3,0.3c-0.1,0.1-0.1,0.1-0.1,0.1c0,0-0.3,0.2-0.2,0.2s0-0.1,0-0.1
	c-0.1,0.1-0.2,0.1-0.3,0.2c-0.2,0.2-0.3,0.3-0.5,0.4l-0.7,0.5c-0.1,0.1-0.4,0.2-0.2,0.1s0.5-0.2,0.4-0.1s-0.4,0.2-0.4,0.3
	c-0.2,0.3-0.2,0.2-0.4,0.3s0.2-0.4,0.1-0.3c-0.3,0.1-0.5,0.3-0.7,0.4c-0.1,0.1,0.1,0.2,0,0.2s-0.2-0.1-0.3,0l-0.3,0.3
	c-0.6,0.6,0.7-0.4,0.8,0.2c0,0.2,0.6-0.1,0.4,0.1s-0.5,0.5-0.7,0.7s0,0-0.2,0s-0.7,0.1-0.3,0c0.3-0.1,0.5-0.3,0.6-0.5
	c0-0.1-1.1,0.3-1.3,0.7c0,0.1,0.4-0.1,0.3,0.1c-0.4,0.2-0.9,0.4-1.3,0.5c-0.2,0.1-0.3,0.2-0.5,0.3c-0.2,0-0.3,0.2-0.3,0.3
	c0,0.2-0.2,0.1-0.4,0.1s-0.2,0.2-0.3,0.2l0,0l-0.3,0.2l-0.3,0.1c-0.3,0.1-0.6,0.3-0.9,0.5c-0.5,0.4,0.4,0.4-0.2,0.7l-0.4,0.2
	c-0.1,0.1-0.2,0.1-0.3,0.2c-0.1,0,0.1,0,0.2,0s0.2-0.1,0.1,0c-0.1,0.1-0.3,0.1-0.4,0.2s-0.2,0.1-0.3,0.4c0,0.1-0.1,0.2-0.1,0.2
	c-0.1,0.1,2-0.8,1.9-0.7c-0.4,0.3-0.8,0.5-1.3,0.7c-0.2-0.1-0.2,0.7-0.4,0.2c0-0.1,0.2-0.2,0-0.1c-0.2,0.1-0.2,0-0.4,0.2
	s-0.6,0.7-0.3,0.4s0.8-0.3,0.6-0.1s-0.7,0.3-0.8,0.4c-0.1,0.1,0,0.8-0.5,0.7c0,0,0-0.1-0.1,0c-0.2,0.1-0.4,0.2-0.5,0.2
	c0.1-0.2,0.4-0.1,0.6-0.3c0.1-0.1,0.2-0.2,0.2-0.4c0-0.1,0.1-0.2,0.1-0.2l-0.3,0c-0.1,0-0.1,0.3-0.1,0.4c-0.1,0.1-0.7,0.2-0.8,0.3
	c-0.2,0.1-0.1,0.3-0.2,0.3c0,0-0.1,0-0.1,0.1c-0.1,0-0.1,0-0.1,0.1c-0.1,0,0,0.1,0.1,0.2c0.1,0,0.3-0.1,0.4-0.1
	c0.2-0.1,0-0.3,0.2-0.2c0.1,0,0.2,0.1,0.2,0.3c0,0.1-0.2,0.1-0.4,0.1s-0.3,0-0.3,0.1s-0.2-0.1-0.2,0.1s0.3,0.2,0.2,0.2
	s-0.1-0.2,0-0.1c0.1,0.1,0.2,0.6,0.5,0.4s-0.1,0.1,0,0.2c0.3,0.1,0.7,0.1,0.9-0.2c0-0.1-0.1-0.1-0.2-0.1c0.2-0.1,0.5-0.2,0.8-0.2
	c0.3,0.1,0.4,0.3,0.4,0.2s0.1-0.1,0.2-0.2s-0.2-0.2,0.1-0.2c0.3,0,0.4-0.2,0.7-0.3s0.5-0.1,0.4-0.1s-0.1,0.1-0.2,0.2s-0.3,0-0.2,0
	c0.3,0.2,0.6,0,0.5-0.1c-0.1-0.4,0.2-0.1,0.2-0.4c0-0.3-0.8,0.1-1.3,0.4c-0.1,0-0.2,0.1-0.3,0.1c0,0,0,0.1,0,0.1s-0.2,0-0.2,0
	c0,0,1.6-0.9,1.8-1c0.1-0.1,0.3-0.1,0.5-0.1c0,0,0,0,0,0.1s0,0.1,0.1,0.1c0.6-0.2,1.2-0.5,1.7-0.8c0.1-0.1,0-0.4-0.2-0.6
	s0.8-0.5,0.9-0.5c0.1,0,0.2-0.2,0.2-0.2s0.1-0.2,0.1,0.1s0.1-0.2,0.3-0.2s0.5-0.2,0.4-0.1c-0.1,0.1-0.1,0.8-0.6,0.7
	s-0.8,0.5-0.9,0.5s0,0.1,0.1,0.2s0.3-0.2,0.6-0.1s0.2,0.1,0.2-0.1c0-0.2-0.2-0.1-0.2-0.1s0.3-0.3,0.5-0.2c0.2,0.1-0.2,0.3-0.1,0.3
	c0.1,0,0.2,0,0.3-0.1c0,0,0,0,0,0c0-0.1,0-0.2,0.1-0.3c0.1-0.1,0.1-0.1,0.1-0.2s0-0.1,0-0.2s0.1,0.2,0.1,0s0-0.3,0-0.4
	s-0.1,0-0.1-0.1s0.6-0.4,0.6-0.3c-0.1,0.3-0.6,0-0.3,0.8s0.8-0.1,0.8,0.2s0.2,0,0.2-0.1c0-0.1,0-0.2-0.1-0.3c0,0,0-0.2,0-0.3
	s-0.2-0.4-0.2-0.3c0,0.1,0,0,0,0.2s-0.2-0.4,0-0.4s0.2-0.2,0.5-0.2c0.2,0,0.3-0.1,0.3,0c-0.1,0.1-0.1,0.2,0,0.4
	c0.1,0.2,0.9-0.7,0.9-0.3s-0.7,0.3-0.7,0.7c0,0.2,0.2,0,0.4,0.1s-0.3,0-0.3,0.3c0,0.3-0.1,0.6-0.2,0.4c-0.1-0.1,0.1-0.6-0.1-0.4
	s-0.2,0.2-0.1,0.4c-0.1,0-0.4,0.2-0.3,0.2s0.3,0,0.2,0s-0.8,0.5-0.9,0.3s0-0.1,0-0.2s0-0.1-0.2,0c-0.2,0.1-0.1,0,0-0.1
	s0.1-0.1,0.1-0.2s-0.4,0.1-0.2,0.6c0,0.1-0.5,0.4-0.8,0.1c-0.1-0.1,0,0.4,0,0.4s0.1,0.1,0.1,0.1s0,0.2,0,0.2s0.1-0.1,0.1,0
	s-0.1,0.1-0.1,0.1s0,0.3,0.2,0.3s0.4-0.3,0.6-0.3s0.1,0,0.1-0.1s0.2-0.2,0.2-0.2s0.1-0.2,0.1-0.1c0,0.1-0.1,0.1,0,0.1
	c0.1,0,0.2,0.1,0.2,0c0-0.1,0-0.2,0-0.3c0.1-0.2-0.1-0.5,0.3-0.3s0.5-0.3,0.5-0.1c0,0.2,0,0.3,0.1,0s0.6-0.6,0.7-0.5
	c0.4,0.2,0.6-0.2,0.8,0c0.1,0.1-0.2,0.1-0.4,0.2c-0.4,0.2-0.8,0.5-0.6,0.5c0.2,0,0.5,0,0.5,0.1s-1,0.2-0.7,0.3c0.1,0,0.5,0,0.4,0.1
	s-0.5,0.3-0.4,0.3c0.3-0.1,0.6-0.2,0.9-0.3c0.2,0,0.4,0.1,0.4,0.1s0.2,0,0.2-0.2s0-0.2,0-0.3s1,0.2,1.3-0.3l0.2-0.3
	c0.1-0.2,1.1-1,1.2-0.3c0,0.1,0.7-0.4,0.5-0.4s-0.2,0-0.2-0.2s0.1-0.5,0-0.6c-0.2-0.2,0.6-0.2,0.8-0.1s-0.1,0.6-0.3,0.6
	s-0.1,0.1-0.1,0.2s0.2,0.1,0.3,0.1l2-1c-0.9,0.7-1.9,1.2-2.9,1.6c-0.3,0.1-0.6,0.1-0.8,0.2c-0.1,0,0.2-0.1,0-0.1s-0.3,0-0.5,0.3
	c-0.1,0.1-0.1,0.2-0.2,0.2c-0.1,0.2-0.3,0.3-0.5,0.4c-1.4,0.5-2.8,1.1-4.2,1.6c0,0,0,0.2,0.1,0.2s0.2-0.1,0.1,0
	c-0.1,0.3-0.5,0.3-0.5,0.3c-0.1,0,0.1-0.2,0.1-0.3s0-0.1-0.1,0c-0.1,0-0.1,0-0.2,0.1c-0.1,0-0.1,0.1-0.2,0.2l-0.1,0.1
	c-0.2,0.2-0.3,0.1-0.5,0.1c-0.4,0.1-0.7,0.3-1.1,0.5c-0.2,0.1-0.4,0.2-0.7,0.3l0,0c-0.1,0-0.3,0.1-0.4,0.1c-0.3,0.1-0.4,0.3-0.4,0.6
	c0,0.1,0.6-0.2,0.7-0.2c0.1,0,0.2-0.1,0.4-0.2s0.4-0.1,0.3,0c-0.1,0.1-0.6,0.2-0.5,0.2c0.1,0,0.3-0.1,0.2,0s-0.5,0.2-0.6,0.3
	s-0.8,0.5-1.1,0.4c0,0-0.5,0.2-0.3,0.1s0.9-0.3,0.7-0.4c-0.4,0.1-0.9,0.2-1.3,0.3c-0.1,0,0.1,0,0.3-0.1s0.8-0.2,1.1-0.3
	c0.1,0,0.1-0.1,0.1-0.1v-0.1c0,0,0,0,0-0.1s-0.3-0.3-0.3,0c-0.6,0-1.1,0.2-1.6,0.6c-0.1,0.1,0.2,0,0,0.2c-0.2,0.2-0.6,0.1-0.5,0.2
	s0.8-0.3,0.8-0.3c-0.2,0.8-0.2,0-0.7,0.6c0,0.1-1.2,0.1-1.7,0.2c-0.4,0.1-0.7,0.2-1.1,0.3c-0.2,0-0.3,0.1-0.5,0.2
	c0,0-0.2,0.1-0.1,0.2s0.6,0,0.9-0.1c0.3-0.1,0.5,0,0.4,0.1c-0.1,0.1-0.5,0.2-0.8,0.4c-0.1,0.1-0.3,0.2-0.4,0.3
	c-0.1,0.1,0.5-0.1,0.5-0.1l0.4-0.1c0.2,0,0.4-0.1,0.6-0.3l0.2-0.3c0.2-0.2,0.5-0.3,0.7-0.3l0,0c0.1-0.1,0.3,0,0.3,0
	s-0.1,0.2-0.1,0.2s0.1,0.1,0.2,0c0.3-0.1,0.5,0,0.7,0c0.7-0.2,1.5-0.5,2.1-0.3c0.2,0.1-0.2,0.2-0.3,0.4c0,0.3,0.2,0.2,0.3,0.2
	c-1,0.6-1.4,0-2.1,0c-0.2,0.1-0.5,0.1-0.7,0.3h-0.1c-0.2,0.1-0.8,0.1-1.1,0.2l0,0c-0.6,0.2-1.1,0.4-1.7,0.5
	c-0.8,0.5-1.6,0.9-2.4,1.2c-0.1,0,0.2,0,0.2,0.1c-0.4,0.6,0,0.5,0,0.7s0.1,0.1,0.2,0s0.1-0.4,0-0.3l-0.1,0.2c-0.1,0.1-0.1,0-0.1,0
	c0,0-0.1,0-0.1-0.1s0.1-0.1,0.3-0.2l0.2-0.1c0.2-0.2,0.5-0.4,0.4,0s-0.2-0.1-0.2,0s-0.2,0.1-0.2,0.1c-0.1,0.2-0.1,0.4-0.1,0.3
	s0.1-0.3,0.1-0.2s-0.2,0.5-0.1,0.5c0.6-0.1,1.5-1.4,2-1c0.2,0.1,0.2-0.2,0.2-0.3s-0.2-0.1-0.3-0.2s1.1,0,1,0.1
	c-0.1,0-0.1,0.1-0.1,0.1c-0.2,0.3-0.3,0.7-0.2,0.7c1.6-0.3,3.1-0.7,4.6-1.3c0.3-0.1,0-0.6,0-0.6s-0.2,0.4-0.2,0.4
	c-0.1,0.2-0.7,0-0.7-0.2c0-0.2,0.4-0.1,0.6-0.2c0.7-0.3,1.5-0.9,1.6,0c0,0.2,1.2-0.6,1.5-0.1c0,0.1,0-0.1,0.7-0.3c0.1,0,0.2,0,0.3,0
	c0,0,0.1-0.1,0.2-0.3c0-0.1,0.2-0.1,0.3-0.2s0-0.3,0.1-0.4c0.1-0.1,0.2,0,0.1,0s-0.1,0.1-0.1,0.2s0,0.1,0,0.1s0.3-0.2,0.5-0.3
	c0,0.1-0.1,0.1-0.2,0.1c-0.1,0-0.3,0.2-0.2,0.2c0.1,0,0.3,0,0.4,0c0.1-0.1,0.1-0.1,0.2-0.2s0.2,0.2,0.3-0.1l0.2-0.3
	c0,0.1,0.1,0.2,0.2,0.2l0.2-0.1l1.1-0.5l0.3-0.2c0.2-0.1,0.4-0.2,0.6-0.3c0,0,0.1,0.1,0.1,0c0-0.1,0.1-0.2,0.1-0.3
	c0.4,0.1,0.8,0,1.2-0.2c0.1,0,0.1-0.1,0.2-0.1c0.1,0,0.3-0.2,0.8-0.5c1.8-1.1,6.3-4.1,8.9-6.1c-0.2,0.3-0.4,0.5-0.7,0.7
	c-0.3,0.1-0.9,0.9-1.1,0.9s-0.8,0.4-1.2,0.8c-0.1,0.1,0.2-0.1,0.3,0s0,0.2,0.1,0.1s0.5-0.4,0.5-0.3c0,0.1-0.1,0.3-0.2,0.4
	c-0.1,0.1-0.3,0.1-0.3,0.2s0,0.2,0.1,0.1l2.8-2.6c0.1-0.1,0.2-0.3,0.4-0.4c0.5-0.3,0.9-0.6,1.3-1.1c0.2-0.2,0.4-0.4,0.6-0.6
	c0.2-0.1,0.3-0.3,0.4-0.4c0.1-0.2,0.3-0.3,0.5-0.3c0.3-0.1,0.5-0.2,0.7-0.3c0.4-0.3,0.8-0.7,1.1-1.1c0.3-0.3,0.5-0.6,0.7-0.9
	c0.2-0.5,0.6-0.8,1.1-0.8c0.2,0,0.1-0.1,0.1-0.1c0.4-0.4,0.6-1,0.9-1.4c0.1-0.1-0.1-0.3-0.1-0.3s0.3-0.1,0.4-0.2
	c0.3-0.4,0.8-0.8,1-1.3c0.1-0.2,0.2-0.3,0.3-0.5c0.1-0.1,0.2-0.3,0.3-0.4c0.3-0.2,0.6-0.3,0.8-0.4c0.1-0.1,0.3,0.2,0.3,0.2l0.7-1.4
	c0.2-0.4,0.4-0.8,0.6-1.2c0.3-0.4,0.6-0.9,0.7-1.4c0.1-0.4,0.3-0.7,0.6-0.9c0.1-0.1,0-0.4,0.4-0.4c0.1,0.1,0.2,0.2,0.2,0.3
	c0,0,0,0.3,0.1,0.1l0.3-1.2c0.3-0.5,0.4-1,0.5-1.6l0.7-1.1c0-0.1,0-0.2,0-0.2c0-0.4,0-0.7,0-1.1c0-0.2,0-0.4,0-0.6
	c0-0.1,0-0.3,0.1-0.4c0.3-0.3,0.4-0.7,0.4-1.2c0-0.3,0.1-0.5,0.3-0.7c0.1-0.3,0.2-0.6,0.4-0.8c0.1-0.3,0.2-0.5,0.4-0.7
	c0.1,0,0.1-0.3,0.2-0.4s0.2,0,0.3-0.2c0.2-0.4,0.1-0.8-0.2-1.1c-0.1-0.1-0.2-0.2-0.2-0.3c0.2-0.7,0.4-1.3,0.6-1.9
	c0.1-0.1,0.1-0.3,0.2-0.4c0-0.1,0.3,0,0.5-0.1s0.1-0.4,0.1-0.5c0.1-0.4,0.1-0.8,0.1-1.2c0.1-0.7,0.2-1.4,0.2-2.1c0-0.3,0-0.7,0.1-1
	c0.1-0.5,0.1-0.9,0.1-1.4c0-0.2,0-0.5,0.1-0.7c0.1-0.1,0.1-0.3,0.1-0.5c0-0.3,0-0.6,0-0.8s0.3-0.2,0.3-0.3c0.3-0.8-0.2-1.3-0.5-1.9
	c-0.1-0.1,0-0.5,0-0.7s-0.2-0.7-0.2-1c-0.1-0.4,0-0.8,0.3-1.2c0.1-0.1,0.1-0.3,0.1-0.4c0-0.1,0-0.3,0-0.4c0-0.4,0.1-0.7,0.3-1
	c0.1-0.1,0.1-0.2,0.1-0.3c-0.1-0.5-0.1-1.1,0-1.6C207,72.4,207,72.3,206.9,72.2z M93.4,77.1c0-0.1,0,0-0.1-0.4s0.2,0.1,0.2,0.2
	c0,0.1,0,0.5,0.1,0.7C93.4,77.5,93.5,77.2,93.4,77.1z M93.9,74.7c0.1,0.1,0.1,0.1,0.2,0.2c0,0.1-0.1,0.1-0.3,0.2s-0.3,0.8-0.3,0.2
	s0.1-1.1,0.6-1.1C94.4,74.2,93.7,74.4,93.9,74.7z M101.4,51.4c0.1-0.1,0.1-0.2,0.1-0.2s0.1,0,0.2,0
	C102.1,51.1,101.3,51.6,101.4,51.4z M100.2,52.2c0-0.1,0.1-0.2,0.2-0.3c0.1,0,0.2-0.2,0.2-0.1c0,0.3,0,0.3-0.2,0.4
	C100.3,52.2,100.2,52.3,100.2,52.2z M100.6,105c-0.1-0.1,0-0.4,0-0.5c-0.1-0.3-0.3-0.5-0.5-0.7c0.2,0,0.3-0.2,0.4-0.1
	c0.2,0.3,0.4,0.6,0.7,0.8c0.2,0.1,0.2,0.3,0.1,0.5c0,0.1-0.1,0.3-0.2,0.4C101.1,105.4,100.7,105.2,100.6,105z M101.3,105.7
	c0,0,0,0.1-0.1,0s0-0.2,0.1-0.3s0.1-0.2,0.1,0C101.4,105.5,101.4,105.6,101.3,105.7L101.3,105.7z M101.6,106.4c0,0.1,0,0.3,0,0.4
	c0,0,0,0.2,0,0.3s-0.2-0.6-0.3-0.8s0.2-0.1,0.4-0.2s0.2-0.3,0.2,0C102,106.3,101.7,106.3,101.6,106.4L101.6,106.4z M102,50.7
	c-0.1-0.1-0.1-0.2,0.1-0.3S102.1,50.6,102,50.7C102.1,50.7,102.1,51,102,50.7z M103.8,47.7C103.7,47.7,103.7,47.8,103.8,47.7
	c-0.1-0.1,0-0.2,0.1,0S103.8,47.7,103.8,47.7L103.8,47.7z M104.4,47.4c-0.1,0,0.1-0.1,0.1-0.1s0.1-0.3,0.1-0.1
	S104.6,47.4,104.4,47.4L104.4,47.4z M134.5,133.2c0,0.1,0.1,0.2,0.2,0.2c0.2,0,0.3,0,0.5,0c0.1,0,0.3,0,0.4,0
	c0.1,0.1,0.2,0.1,0.3,0.1c0.1,0-0.1,0.1-0.2,0.1c-0.2,0-0.4-0.1-0.6-0.1c-0.2,0-0.3-0.1-0.5-0.2c-0.1-0.1-0.1-0.2-0.1-0.2
	C134.3,133,134.4,133.1,134.5,133.2L134.5,133.2z M120.6,102.2c0.2,0.2,0.4,0.4,0.6,0.6c0,0.1,0,0.2-0.1,0.2c-0.1,0-0.2,0.1-0.2,0.1
	c-0.3,0-0.4-0.5-0.6-0.8S120.5,102,120.6,102.2L120.6,102.2z M118.5,101c-0.1,0.1-0.2,0.3-0.4,0.4c-0.1,0.1-0.1-0.1,0-0.1
	s0.1-0.2,0.1-0.2s-0.4,0.1-0.3,0c0.2-0.3,0.4-0.4,0.9-0.1C118.8,100.9,118.5,100.8,118.5,101L118.5,101z M118.3,100
	c0.2,0.1,0.1,0.2-0.2,0.2c-0.1,0-0.5-0.7-0.6-0.9C117.3,98.9,117.9,99.8,118.3,100L118.3,100z M117.7,101.3c0.2,0-0.4,0.3-0.3,0.4
	s0.2,0.4,0.2,0.6s0.2,0.4,0.2,0.3c0.4-0.3,0.4-0.8,0.7-1.2c0.1-0.2,0.5-0.1,0.8,0.2c0,0,0.2,0.1,0.2,0.2c-0.1,0.3,0.1,0.7,0.3,0.9
	c0.3,0.3-0.7,0.4-0.6,0.6c0,0.1,0,0.2,0.1,0.2c0.4,0.6,0.2,1.5,0.8,1.9c0.2,0.2,0.4,0.3,0.4,0.6s0.4,0.2,0.2,0.3
	c-0.2,0-0.4-0.1-0.5-0.3c-0.7-0.8-1.4-1.5-2.1-2.3c-0.3-0.4-0.6-0.9-0.9-1.3c-0.1-0.1-0.1-0.2-0.2-0.3c-0.2-0.2-0.3-0.5-0.2-0.8
	C116.7,101.1,117.3,101.1,117.7,101.3L117.7,101.3z M116.7,98.8l0.2-0.4c0.2,0.4,0.1,0.4-0.2,0.8h-0.4
	C116.3,98.8,116.6,98.8,116.7,98.8L116.7,98.8z M111,116.9C111,116.9,111,116.9,111,116.9c0.1,0.1,0.2,0.4,0.2,0.5
	c0.1,0.1,0.3,0.5,0.3,0.6c0,0.1-0.1-0.1-0.2-0.1S110.9,117,111,116.9L111,116.9z M144.8,41.1c-0.3,0-0.2-0.1-0.1-0.1s0.1-0.1,0.1,0
	s0.2,0.1,0.3,0.1C145.1,41.2,144.9,41.1,144.8,41.1z M145.1,41.5C145.1,41.5,145,41.5,145.1,41.5c0-0.1,0-0.2,0-0.3
	S145.1,41.4,145.1,41.5C145.3,41.5,145.2,41.5,145.1,41.5z M148.1,41.1c-0.1,0,0.1-0.1,0.1-0.1s0.1-0.1,0.1-0.2s0.1,0,0.1,0.1
	C148.4,40.9,148.4,41,148.1,41.1L148.1,41.1z M157.4,40.2c-0.5,0.2-1.1,0-1.5,0.5c-0.1,0.1-0.2-0.1-0.3-0.1c-0.1,0-0.1,0.1-0.2,0.2
	s-0.2-0.1-0.3-0.1s-0.2,0.1-0.3,0.1s-0.1,0-0.1,0c-0.3,0-0.6-0.2-0.7-0.1l0,0c0,0-0.2-0.2-0.3-0.2c-0.2-0.1-0.3-0.1-0.5,0
	c-0.4,0.1-1.2,0.2-1.3,0s-0.1-0.3-0.2-0.4c-0.1-0.1-0.1-0.1-0.2-0.1l-1.5,0.3c-0.2,0-0.4,0.1-0.6,0.1c-0.3,0-0.6,0-0.9,0
	c-0.3,0-0.6,0.1-0.7-0.3c0-0.1,0.2-0.3,0.2-0.4l-0.3-0.8c0-0.2,0.2-0.2,0.3-0.1s0.4,0,0.6,0l1.1,0.1c0.2,0.1,0.5,0,0.7-0.1
	c0.2-0.1,0.5-0.1,0.7-0.1c0.3,0,0.5,0,0.8,0c0.2,0.1,0.4,0.2,0.6,0.3c0.4,0.1,0.8,0.2,1.1,0.1c0.1,0,0.3,0,0.4,0
	c0.4,0,0.8,0.1,1.2,0.2c0,0,0.1,0.2,0.2,0.2c0.3-0.1,0.7-0.2,0.9-0.2c0.3,0.1,0.6,0.2,0.9,0.4C157.4,39.8,157.6,40.1,157.4,40.2
	L157.4,40.2z M173.4,114.4c0,0-0.1,0.1-0.1,0.1c0,0-0.2,0.2-0.1,0.1s0.1-0.2,0.2-0.4S173.4,114.3,173.4,114.4L173.4,114.4z
	 M167.4,118.9c-0.1,0-0.1,0-0.2,0c-0.1,0-0.1,0.2-0.2,0.3c-0.1,0.1-0.3,0.2-0.4,0.2c-0.1,0,0-0.1,0-0.2s0.1,0,0.3-0.1
	c0.1-0.1,0.2-0.1,0.3-0.2c0.1-0.1,0.2-0.1,0.2-0.1s-0.1,0-0.1-0.1c-0.1-0.1,0.8-0.2,0.9-0.2S167.6,119,167.4,118.9L167.4,118.9z
	 M164.3,121.9c-0.1,0-0.1,0-0.2,0c0,0,0.2,0,0.3,0S164.3,121.8,164.3,121.9L164.3,121.9z M164.3,122.4c0,0.2-0.4,0.4-0.3,0.3
	c0.1-0.1-0.1-0.3,0.1-0.2S164.3,122.2,164.3,122.4L164.3,122.4z M167.4,120.1c0.1,0,0.2-0.1,0.2,0c0,0.1-0.1,0.3-0.3,0.1
	S167.3,120.1,167.4,120.1L167.4,120.1z M166.5,121.1c-0.1,0-0.1,0.1-0.1,0.1C166.4,121.3,166.5,121,166.5,121.1L166.5,121.1z
	 M165.8,121.3c0.1,0,0.1,0,0.1,0S165.8,121.4,165.8,121.3C165.6,121.2,165.7,121.3,165.8,121.3L165.8,121.3z M164.8,121.9
	c0.2,0,0.4,0,0.2,0s-0.3,0.2-0.4,0.1s0-0.1,0-0.2S164.8,121.8,164.8,121.9L164.8,121.9z M165.7,122.4c-0.1,0.1-0.1,0.2-0.2,0.1
	c-0.1,0,0.2-0.2,0.2-0.3c0.1-0.1,0,0,0.1,0.1C165.9,122.4,165.8,122.3,165.7,122.4L165.7,122.4z M167.3,121.3
	c-0.3,0.3-0.6,0.5-0.9,0.7c-0.1,0.1-0.6,0-0.7,0.1c-0.1,0.1-0.2,0.3-0.4,0.4s-0.4,0-0.5,0c-0.2,0-0.5,0.2-0.3,0
	c0.1-0.2,0.2-0.2,0.2-0.3c0,0-0.1-0.1,0-0.1c0.2,0,0.5,0,0.7-0.2c0.1,0,0.4-0.1,0.5-0.2c0.1-0.1,0-0.2,0.2-0.2s0.2,0,0.2,0
	c0.1,0,0.2-0.1,0.2-0.1c0.4,0,0.1,0-0.1,0.2s-0.3,0.3,0,0.2c0.3-0.1,0.5-0.3,0.8-0.5C167.3,121.1,167.4,121.1,167.3,121.3
	L167.3,121.3z M167.9,121.2c-0.1,0.1-0.2,0-0.4,0.1c0-0.4,0.3-0.1,0.3-0.4c0-0.1-0.3-0.1-0.4,0s-0.1,0.1-0.2,0s0.2,0,0.2,0
	s0.3-0.3,0.5,0.2c0,0-0.2,0-0.1,0.1S168.1,121.1,167.9,121.2L167.9,121.2z M168,119.9c-0.1,0.3-0.6,0.4-0.4,0.2s0.1,0,0.2-0.1
	C167.9,119.9,168.1,119.7,168,119.9L168,119.9z M168,119.6c-0.1,0-0.1,0-0.2,0c-0.1,0,0.2-0.1,0.3-0.1
	C168.1,119.4,168.1,119.5,168,119.6L168,119.6z M177.1,111.4c0.1,0.1,0.1,0.1,0,0.1s0-0.1-0.2,0
	C176.7,111.6,177.1,111.3,177.1,111.4L177.1,111.4z M175.4,113.5c0,0,0,0-0.1,0.1s-0.1,0.1-0.1,0.1
	C175.1,113.7,175.4,113.4,175.4,113.5L175.4,113.5z M174.8,114.1c0.1-0.1,0.1-0.3,0.3-0.1s0.6-0.2,0.7-0.3s-0.1-0.2,0-0.3
	s0.2,0,0.4,0c0.2,0,1-0.5,0.8-0.2c-0.4,0.5-0.9,0.8-1.4,0.9c-0.2,0.1-0.5,0.1-0.7,0.1C174.6,114.3,174.7,114.2,174.8,114.1
	L174.8,114.1z M175.3,116.3c0.1-0.2,0.4-0.5,0.8-0.4c0.1,0-0.1,0.1-0.3,0.2C175.6,116.2,175.2,116.4,175.3,116.3L175.3,116.3z
	 M175.4,116.9c0,0.1-0.1,0-0.1,0s-0.1,0.3-0.1,0.1C175.2,116.9,175.6,116.7,175.4,116.9L175.4,116.9z M174.7,116.3
	c-0.4,0.6-0.5-0.1-0.3-0.2l1.3-0.8C175.4,115.6,175.1,115.9,174.7,116.3L174.7,116.3z M175.1,116.3c0,0.2-0.2,0.2-0.4,0.2
	C174.9,116.2,175,116.1,175.1,116.3L175.1,116.3z M174.5,115.3c0.3-0.2,0.4-0.3,0.6-0.3C175.3,115,174.7,115.2,174.5,115.3
	C174.5,115.5,174.2,115.5,174.5,115.3L174.5,115.3z M174.2,115.6c0,0.1,0.2-0.1,0.2,0.1s-0.1,0.3-0.3,0.4
	C173.8,116.3,174.2,115.4,174.2,115.6L174.2,115.6z M173.7,114c0.1-0.1,0.1,0,0.1,0c0,0,0,0,0,0S173.6,114.1,173.7,114L173.7,114z
	 M168.7,121.2c-0.2,0-0.4,0.2-0.5,0.2s0.1-0.1,0.2-0.2S168.9,121.2,168.7,121.2L168.7,121.2z M168.4,118.9c0.1-0.1,0.2-0.2,0.1-0.1
	C168.5,118.9,168.4,119,168.4,118.9C168.2,119,168.4,119,168.4,118.9L168.4,118.9z M168.7,119.7c-0.3,0,0-0.2,0.3-0.3
	s0.2-0.1,0.2-0.1C169.3,119.6,169.2,119.6,168.7,119.7L168.7,119.7z M169.4,119c-0.2,0-0.4,0.3-0.6,0.2c-0.2,0,0-0.2,0-0.3
	s-0.1,0-0.1-0.1c0-0.1,0.4-0.1,0.2-0.2l-0.6-0.2c-0.2,0,0.6-0.5,0.6-0.4c0,0.1-0.5,0.3-0.3,0.3s0.5,0,0.4,0s-0.2,0-0.1,0.1
	c0.2,0.1,0.6-0.3,0.5,0S169.5,118.9,169.4,119L169.4,119z M169.3,118.2c0,0.3-0.5-0.3-0.3-0.3c0.1,0,0.3-0.1,0.4-0.2
	c0.1-0.2,0.2-0.4,0.2-0.3c0,0.1,0,0.3,0.1,0.2c0.1-0.1,0.3-0.2,0.4-0.2C170.2,117.4,169.3,117.9,169.3,118.2L169.3,118.2z
	 M171.4,118.9c0,0.1-0.2,0.6-0.4,0.2c-0.2-0.3,0-0.3,0.1-0.2C171.3,118.9,171.4,118.7,171.4,118.9L171.4,118.9z M172.6,118.4
	c-0.1,0.1-0.5,0.3-0.8,0.2S172.8,118.3,172.6,118.4L172.6,118.4z M173.1,118.1c0,0.1-0.1,0.1-0.2,0.1c-0.2,0,0.1-0.2,0.2-0.3
	S173.1,118,173.1,118.1L173.1,118.1z M173.4,118c0,0.1-0.1,0.2-0.1,0.1S173.5,117.8,173.4,118L173.4,118z M173.6,117.1
	c-0.7,0.5-1.4,1-2.2,1.3l-0.5,0.2c-0.1,0-0.2-0.1-0.3,0s0.1,0.3-0.3,0.3c-0.1,0-0.2,0.1-0.1,0.2s0.1,0.1,0.1,0.1s-0.2,0.1-0.2,0.4
	c0,0.2-0.1-0.1-0.3-0.1c-0.2,0-0.1-0.1-0.1-0.2c0-0.1-0.3,0.1-0.3-0.1s0.1-0.2,0.1-0.2s-0.2,0.1-0.2-0.1c0-0.2,0-0.5,0.2-0.6
	c0.2-0.1,0.6-0.1,0.6-0.3s0.3-0.5,0.5-0.3c0.2,0.2,0.2-0.3,0-0.2c-0.2,0.1-0.5,0.1-0.5-0.1c0-0.2,0.2-0.7,0.3-0.2
	c0,0.2,0.4,0,0.6-0.3s0.2-0.4,0.3-0.3c0.4,0.1,0.4-0.3,0.6-0.3c0.6-0.1,1.2-0.3,1.7-0.7c0,0,0.1-0.2,0.1,0s-0.6,0.2-0.7,0.7
	c0,0.2-0.4,0.3-0.8,0.2s-0.3,0.3-0.2,0.4s0.2,0.3,0.3,0.1s0.1,0,0.2,0c0.1,0,0.1,0,0.2-0.1s0.2-0.2,0.1,0.2S173.9,116.8,173.6,117.1
	L173.6,117.1z M173.2,116.7c0-0.3,0.2-0.1,0.4-0.2C173.8,116.3,173.2,116.9,173.2,116.7L173.2,116.7z M173.8,116.9
	c0.1-0.1,0.1-0.4,0.2-0.5s0.1,0,0.2,0.1s0.2,0.1,0.2,0.2C174.2,116.9,173.7,117,173.8,116.9L173.8,116.9z M173.9,117.5
	c-0.1,0-0.1-0.1,0-0.2c0.2-0.1,0.1,0.1,0.3-0.1s0.3-0.2,0.3-0.1c-0.1,0.1-0.1,0.2-0.2,0.2C174.2,117.4,174,117.5,173.9,117.5
	L173.9,117.5z M174.4,119.9c-0.4,0.2-0.9,0.4-0.8,0.2s0.1-0.3,0.2-0.4c0.5-0.2,1-0.3,1.5-0.4c0.1,0-0.1,0.2-0.1,0.4
	C175.1,119.9,174.8,119.8,174.4,119.9L174.4,119.9z M175.7,119.5c-0.1,0.2-0.3,0.2-0.3,0.2c0-0.1-0.1,0.2-0.1,0s0-0.1,0.1-0.1
	c0.1,0-0.1-0.1,0.1-0.1S175.8,119.3,175.7,119.5L175.7,119.5z M175.6,117.4c0-0.2,0.5-0.5,0.4-0.2c0,0-0.1,0.1-0.1,0.1
	S175.6,117.5,175.6,117.4L175.6,117.4z M175.9,119.7C175.8,119.9,175.7,119.8,175.9,119.7c0-0.1,0.1-0.3,0.2-0.4
	C176.3,119.1,175.9,119.5,175.9,119.7L175.9,119.7z M176.3,117c0,0.1-0.2,0.4-0.2,0C176.1,116.8,176.1,117,176.3,117
	C176.4,116.8,176.4,116.8,176.3,117L176.3,117z M175.7,116.9c-0.3,0.2,0-0.1,0-0.2c0.1-0.4,0.6-0.3,0.9-0.4
	C176.7,116.1,176,116.7,175.7,116.9L175.7,116.9z M176.7,116.9c-0.1,0,0.1,0,0.1-0.1S176.8,116.9,176.7,116.9L176.7,116.9z
	 M177.1,114.9c-0.2,0.3-0.7,0.5-1.1,0.4c-0.3-0.1,1-0.7,1.4-0.7C177.5,114.6,177.2,114.7,177.1,114.9L177.1,114.9z M177.5,111.4
	c-0.1,0-0.2,0-0.2,0C177.2,111.4,177.4,111.4,177.5,111.4C177.6,111.4,177.6,111.4,177.5,111.4L177.5,111.4z M166,126
	c-0.3,0.2-0.7,0.3-1.1,0.3c0,0,0-0.1,0.3-0.1S166.1,126,166,126z M167,125.9c-0.1,0-0.2,0.2-0.3,0.1S167,125.9,167,125.9L167,125.9z
	 M167.3,126.1c-0.2,0.1-0.4,0.3-0.7,0.3c0,0-0.2,0,0-0.1s0.2-0.2,0.4-0.2C167.1,126,167.5,126.1,167.3,126.1L167.3,126.1z
	 M188.2,106.7c0.1-0.1,0,0,0,0.1c0,0.1-0.1,0.2-0.1,0.2C188.1,107.3,188.1,107,188.2,106.7L188.2,106.7z M187.5,97.7
	c0.1-0.1,0,0.1,0,0.2s-0.1,0.1-0.2,0.2s0,0.3,0,0.3C187.1,98.4,187.4,98,187.5,97.7L187.5,97.7z M187.7,108.1c0.3,0-0.7,0.7-0.8,0.8
	S187,108.3,187.7,108.1L187.7,108.1z M186.7,109.9c0.2-0.2,0.3-0.2,0.2-0.1s-0.4,0.5-0.6,0.7S186.6,110.1,186.7,109.9L186.7,109.9z
	 M185.8,107.9c0.1-0.1,0.1,0,0,0.2c0,0.1-0.1,0.2-0.2,0.2C185.6,108.3,185.8,108,185.8,107.9L185.8,107.9z M184.4,111
	c-0.1,0.2-0.5,0.5-0.4,0.3l0.3-0.5C184.6,110.6,184.6,110.9,184.4,111L184.4,111z M184,110c0.1-0.1,0.1-0.2,0.2-0.3
	c0.1-0.1,0.1,0.1,0,0.1S183.9,110,184,110z M184.3,109.6c0.1-0.1,0.2-0.4,0.1-0.1S184.2,109.6,184.3,109.6L184.3,109.6z
	 M183.8,107.4c0-0.1,0.2-0.2,0.4-0.4c0.2-0.2,0.3-0.4,0.4-0.6c0.1-0.1,0,0.3,0,0.4s-0.1,0.2-0.2,0.3c-0.1,0.1-0.2,0.2-0.3,0.2
	C183.9,107.3,183.8,107.5,183.8,107.4L183.8,107.4z M183.5,110.5c0.1-0.1,0.4-0.4,0.3-0.2C183.7,110.4,183.7,110.5,183.5,110.5
	C183.5,110.7,183.4,110.6,183.5,110.5L183.5,110.5z M182.9,108.2c0.1-0.1,0.2-0.5,0.2-0.4s0,0.2,0,0.3S182.8,108.3,182.9,108.2
	L182.9,108.2z M183.1,111.1c0.2,0.1-0.1,0.1-0.2,0.1h-0.2c-0.1,0.1-0.2,0.5-0.2,0.3C182.4,111.1,182.7,110.9,183.1,111.1
	L183.1,111.1z M182.4,110c-0.1,0.3-0.3,0.7-0.3,0.4c0.1-0.5,0.7-1,0.5-0.6C182.6,109.8,182.5,109.8,182.4,110L182.4,110z
	 M182.5,117.9c0,0.1-0.2,0.2-0.3,0.2S182.4,117.7,182.5,117.9L182.5,117.9z M182.5,108.7l0.2-0.3c0.1-0.1,0.1,0.1,0,0.1
	S182.4,108.8,182.5,108.7L182.5,108.7z M177.9,114c0-0.1,0.1-0.1,0.2-0.1c0,0,0.1,0,0.1,0C178.2,113.8,177.9,114.1,177.9,114
	L177.9,114z M178.3,112.8c-0.3,0.2,3.5-3.3,3.9-3.6s0.2-0.2,0,0.1c-0.6,1.1-1.6,2-2.7,2.6C179.1,111.9,178.6,112.5,178.3,112.8
	L178.3,112.8z M181.3,118.6c-0.1,0-0.1,0.1-0.1,0s0.2-0.1,0.3-0.1S181.3,118.5,181.3,118.6L181.3,118.6z M180,118.7
	c-0.1-0.3-0.6,0.4-0.8,0.3s-0.6-0.4,0-0.5s1.7-0.7,1.5-0.4C180.5,118.6,180,118.7,180,118.7L180,118.7z M180.5,119.8
	c0.2-0.1,0.2-0.4,0.2-0.2c0,0.5,0.9-0.7,1.1-0.1c0.1,0.2-0.9,0.3-1.4,0.6C180.2,120.1,180.3,119.9,180.5,119.8L180.5,119.8z
	 M179.2,120.5c0.2-0.2,1.1-0.4,0.9-0.3s-0.4,0.3-0.7,0.5S179,120.7,179.2,120.5L179.2,120.5z M171.2,126.5c-0.6,0.8-0.8-0.5-1.5,0.1
	c-0.8,0.6,0-0.2,0.1-0.3c0.4-0.2,1.2-0.1,1.6-0.3c0.2-0.2,0.2-0.1-0.1,0.4L171.2,126.5z M171.3,125.3c-0.1,0.1-0.1,0.1-0.2,0
	c-0.1-0.1,0.3-0.2,0.2-0.1L171.3,125.3z M173.8,125c-0.7,0.8-1.4,0.7-1.7,0.3c-0.2-0.2,0.4,0.1,0.8-0.3c0,0-0.1,0-0.2,0
	c-0.8,0-1.4-0.6-2.5,0.4c-0.2,0.1-1.6,0.7-1.7,0.5c-0.2-0.2,0.7-0.1,1.6-1.6c0.7-0.3,1.4-0.5,2.1-0.5c0,0-0.2,0.2-0.4,0.3
	c-0.4,0.1-1,0.2-0.7,0.3c1.1,0,2-0.6,2.6-1.5c-0.1,0.3,0.2-0.1,0.3-0.1s0.1-0.2,0.1-0.2s0,0.3,0.3,0.3c0.3,0-0.5,0.2-0.5,0.3
	c0,0.2,0.1,0.3,0.2,0.3c0.3,0,1.3-1.2,1.3-0.7c0,0.2,0.2-0.3,0.4-0.4c0.6-0.5,1,0.1,1.6-0.4c0.4-0.3,0.7-0.6,1.2-0.8
	c0.3-0.1,0.6-0.2,0.8-0.3s0.9-0.7,0.5-0.3s-4.1,2.3-6.4,3.6c-0.3,0.2-0.6,0.2-0.5,0.3c0.1,0,0.2,0.4,0.4,0.3
	c0.4-0.3,0.6-0.2,0.5-0.1L173.8,125z M176.2,124.8c-0.1,0.1-0.2,0-0.4,0s-0.2,0.1-0.5,0.2s-0.1,0-0.1,0c0.1-0.1,0.2-0.2,0.3-0.2
	c0.2-0.1,0.3,0,0.5,0c0.1,0,0.2,0,0.2-0.1c0.1-0.2,0-0.1-0.1,0L176.2,124.8z M182.7,119.9l-0.8,0.6c-2,1.4-4.1,2.7-6.3,3.9
	c-0.4,0.3-0.8,0.4-1.2,0.3c-0.5-0.1-0.7,0.2-0.6-0.1c0.1-0.3,1,0.3,1.6-0.5c0.1-0.1-0.2-0.1-0.1-0.2c0.1-0.2,0.4-0.3,0.6-0.3
	c0.1,0-0.5,0.1-0.4,0.3c0.1,0.5,0.5-0.2,0.8-0.2s0.1-0.2,0.1-0.3s2.1-1.7,2.5-1.1c0,0.1,0.5-0.2,0.7-0.5s-0.4,0.1-0.3-0.1
	s2.4-1.4,3.6-2.2c0.1-0.1-0.1,0.1-0.1,0.2S182.9,119.7,182.7,119.9L182.7,119.9z M183.7,117.1c0.2-0.2,0.1,0,0.4-0.1s-0.9,0.6-1,0.6
	c0.2-0.2,0.4-0.5,0.7-0.7L183.7,117.1z M185.5,117.7c-0.6,0.8-1.5,1.4-2.4,1.7c0-0.1,0.3-0.2,0.7-0.5s0.5-0.7,0.9-1
	S185.6,117.5,185.5,117.7L185.5,117.7z M185.7,112.8c-0.5,0.3-1,0.7-1.4,1.2c-0.4,0.4-0.4,0.1-0.1-0.2s0.1-0.3,0-0.4s0.3,0.1,0.4,0
	c0.6-0.7,0.9-1.4,1.5-1.8c1-1,2-2,2.9-3c-0.2,0.3-2.5,3.7-3.3,4.1L185.7,112.8z M189.4,115.7c-0.8,0.6-0.5,0.6-0.8,0.8
	s-0.3,0.3-0.7,0.6s-0.6,0.5-0.8,0.6s-0.2,0.1,0-0.1s0.2-0.2,0.3-0.3s0.1-0.1,0.3-0.2c0.1-0.1,0.2-0.2,0.3-0.3c0.1-0.1,0.1,0,0.3-0.2
	c0.3-0.2,0.5-0.4,0.7-0.7c0.1-0.2,0.3-0.3,0.5-0.4c0,0,0.5-0.2-0.1,0.2L189.4,115.7z M203.4,61.3c-0.1-0.1-0.2-0.3-0.2-0.5
	c0.1-0.2,0.3-0.7,0.2-0.4c0,0-0.1,0.4-0.1,0.5c0,0.2,0.3,0.5,0.1,0.4L203.4,61.3z M204.5,92.2c0.1,0.1,0.1,0.4,0.1,0.7
	s-0.1,0.2-0.1,0.3s0-0.2,0-0.3c0-0.1,0-0.2,0.1-0.4c0-0.3-0.1-0.5,0-0.4L204.5,92.2z M205.3,67c0,0.1-0.7-0.7-0.5-0.9
	c0,0,0.1,0.1,0.3,0.2s0.3,0,0.3,0.1s0,0.2-0.1,0.3S205.3,67,205.3,67z M205.4,67.2c0-0.1,0-0.3,0.1-0.2s0.1,0.3,0,0.5
	c0,0.1-0.1,0.1-0.2,0.2C205.2,67.7,205.3,67.3,205.4,67.2L205.4,67.2z M205.5,68.3L205.5,68.3c-0.1-0.2,0-0.3,0-0.3
	S205.5,68.1,205.5,68.3C205.5,68.2,205.5,68.3,205.5,68.3L205.5,68.3z"/>
<radialGradient id="SVGID_00000035491679434747666970000004374770933798586525_" cx="190.58" cy="135.94" r="109.82" gradientTransform="matrix(1 0 0 -1 -2 175)" gradientUnits="userSpaceOnUse">
	<stop  offset="0" style="stop-color:#FF8709"/>
	<stop  offset="0.16" style="stop-color:#FC8309"/>
	<stop  offset="0.32" style="stop-color:#F27608"/>
	<stop  offset="0.49" style="stop-color:#E26207"/>
	<stop  offset="0.66" style="stop-color:#CB4505"/>
	<stop  offset="0.83" style="stop-color:#AE2003"/>
	<stop  offset="0.95" style="stop-color:#950001"/>
</radialGradient>
<path style="fill:url(#SVGID_00000035491679434747666970000004374770933798586525_);" d="M179.4,123.9c-0.2,0.2-0.2,0.2-0.3,0.3
	s0.3,0,0.4-0.1c0.3-0.2,0.6-0.5,0.9-0.8C180.2,123.5,179.6,123.8,179.4,123.9z"/>
<radialGradient id="SVGID_00000042703914483875318860000007968793722924360627_" cx="190.58" cy="135.9" r="109.76" gradientTransform="matrix(1 0 0 -1 -2 175)" gradientUnits="userSpaceOnUse">
	<stop  offset="0" style="stop-color:#FF8709"/>
	<stop  offset="0.16" style="stop-color:#FC8309"/>
	<stop  offset="0.32" style="stop-color:#F27608"/>
	<stop  offset="0.49" style="stop-color:#E26207"/>
	<stop  offset="0.66" style="stop-color:#CB4505"/>
	<stop  offset="0.83" style="stop-color:#AE2003"/>
	<stop  offset="0.95" style="stop-color:#950001"/>
</radialGradient>
<path style="fill:url(#SVGID_00000042703914483875318860000007968793722924360627_);" d="M170.1,121.9l0.7-0.2
	c0.1,0-0.5-0.2-0.5-0.1S170,121.9,170.1,121.9z"/>
<radialGradient id="SVGID_00000094590850709563094640000008935876590526015422_" cx="190.58" cy="135.89" r="109.75" gradientTransform="matrix(1 0 0 -1 -2 175)" gradientUnits="userSpaceOnUse">
	<stop  offset="0" style="stop-color:#FF8709"/>
	<stop  offset="0.16" style="stop-color:#FC8309"/>
	<stop  offset="0.32" style="stop-color:#F27608"/>
	<stop  offset="0.49" style="stop-color:#E26207"/>
	<stop  offset="0.66" style="stop-color:#CB4505"/>
	<stop  offset="0.83" style="stop-color:#AE2003"/>
	<stop  offset="0.95" style="stop-color:#950001"/>
</radialGradient>
<path style="fill:url(#SVGID_00000094590850709563094640000008935876590526015422_);" d="M163.2,122.5c0,0-0.2,0.3-0.2,0.2
	C163.1,122.7,163.2,122.6,163.2,122.5C163.3,122.5,163.2,122.5,163.2,122.5z"/>
<radialGradient id="SVGID_00000163758320508168322160000009483314726207225487_" cx="190.59" cy="135.99" r="109.87" gradientTransform="matrix(1 0 0 -1 -2 175)" gradientUnits="userSpaceOnUse">
	<stop  offset="0" style="stop-color:#FF8709"/>
	<stop  offset="0.16" style="stop-color:#FC8309"/>
	<stop  offset="0.32" style="stop-color:#F27608"/>
	<stop  offset="0.49" style="stop-color:#E26207"/>
	<stop  offset="0.66" style="stop-color:#CB4505"/>
	<stop  offset="0.83" style="stop-color:#AE2003"/>
	<stop  offset="0.95" style="stop-color:#950001"/>
</radialGradient>
<path style="fill:url(#SVGID_00000163758320508168322160000009483314726207225487_);" d="M169.8,123
	C169.8,123.1,169.8,123,169.8,123c0.1,0,0.2-0.1,0.2-0.1S169.9,122.9,169.8,123z"/>
<radialGradient id="SVGID_00000165211851966811366380000004853788560070509470_" cx="190.57" cy="135.91" r="109.77" gradientTransform="matrix(1 0 0 -1 -2 175)" gradientUnits="userSpaceOnUse">
	<stop  offset="0" style="stop-color:#FF8709"/>
	<stop  offset="0.16" style="stop-color:#FC8309"/>
	<stop  offset="0.32" style="stop-color:#F27608"/>
	<stop  offset="0.49" style="stop-color:#E26207"/>
	<stop  offset="0.66" style="stop-color:#CB4505"/>
	<stop  offset="0.83" style="stop-color:#AE2003"/>
	<stop  offset="0.95" style="stop-color:#950001"/>
</radialGradient>
<path style="fill:url(#SVGID_00000165211851966811366380000004853788560070509470_);" d="M162.9,123.4c0,0.3,0.1,0.2,0.2,0.2
	s0.2-0.1,0.1-0.1c-0.1,0-0.2,0-0.3,0c-0.1,0,0.3,0,0.3-0.1s0.3-0.4,0.1-0.3s-0.3-0.3-0.4-0.2s0,0.2,0,0.3S162.9,123.3,162.9,123.4z"
	/>
<radialGradient id="SVGID_00000152261389504934395350000017932025909285945476_" cx="190.58" cy="135.94" r="109.81" gradientTransform="matrix(1 0 0 -1 -2 175)" gradientUnits="userSpaceOnUse">
	<stop  offset="0" style="stop-color:#FF8709"/>
	<stop  offset="0.16" style="stop-color:#FC8309"/>
	<stop  offset="0.32" style="stop-color:#F27608"/>
	<stop  offset="0.49" style="stop-color:#E26207"/>
	<stop  offset="0.66" style="stop-color:#CB4505"/>
	<stop  offset="0.83" style="stop-color:#AE2003"/>
	<stop  offset="0.95" style="stop-color:#950001"/>
</radialGradient>
<path style="fill:url(#SVGID_00000152261389504934395350000017932025909285945476_);" d="M172.8,122C172.8,122,172.8,122,172.8,122
	l0.5-0.2c0,0-0.1-0.1-0.2-0.2s0-0.3-0.1-0.1c-0.1,0.2-0.5-0.1-0.6,0.4c0,0.1,0-0.2-0.1-0.1l-0.2,0.1c-0.1,0,0,0.1,0,0.1
	C172.3,122.1,172.5,122.1,172.8,122C172.8,122,172.8,122,172.8,122z"/>
<radialGradient id="SVGID_00000070088113512742154720000001809735519189921430_" cx="190.58" cy="135.88" r="109.74" gradientTransform="matrix(1 0 0 -1 -2 175)" gradientUnits="userSpaceOnUse">
	<stop  offset="0" style="stop-color:#FF8709"/>
	<stop  offset="0.16" style="stop-color:#FC8309"/>
	<stop  offset="0.32" style="stop-color:#F27608"/>
	<stop  offset="0.49" style="stop-color:#E26207"/>
	<stop  offset="0.66" style="stop-color:#CB4505"/>
	<stop  offset="0.83" style="stop-color:#AE2003"/>
	<stop  offset="0.95" style="stop-color:#950001"/>
</radialGradient>
<path style="fill:url(#SVGID_00000070088113512742154720000001809735519189921430_);" d="M170.3,121.6h0.2c0,0,0-0.1,0.1-0.1
	c0.1,0,0.3-0.2,0.3-0.2C170.6,121.2,170.4,121.4,170.3,121.6z"/>
<radialGradient id="SVGID_00000015318583983191491120000001576358072041787835_" cx="190.58" cy="136.01" r="109.9" gradientTransform="matrix(1 0 0 -1 -2 175)" gradientUnits="userSpaceOnUse">
	<stop  offset="0" style="stop-color:#FF8709"/>
	<stop  offset="0.16" style="stop-color:#FC8309"/>
	<stop  offset="0.32" style="stop-color:#F27608"/>
	<stop  offset="0.49" style="stop-color:#E26207"/>
	<stop  offset="0.66" style="stop-color:#CB4505"/>
	<stop  offset="0.83" style="stop-color:#AE2003"/>
	<stop  offset="0.95" style="stop-color:#950001"/>
</radialGradient>
<path style="fill:url(#SVGID_00000015318583983191491120000001576358072041787835_);" d="M172.2,120.4l0.4-0.1c0.1,0,0-0.1-0.1-0.1
	S172,120.4,172.2,120.4z"/>
<radialGradient id="SVGID_00000170998602116326743390000015286742762149449358_" cx="190.58" cy="135.94" r="109.8" gradientTransform="matrix(1 0 0 -1 -2 175)" gradientUnits="userSpaceOnUse">
	<stop  offset="0" style="stop-color:#FF8709"/>
	<stop  offset="0.16" style="stop-color:#FC8309"/>
	<stop  offset="0.32" style="stop-color:#F27608"/>
	<stop  offset="0.49" style="stop-color:#E26207"/>
	<stop  offset="0.66" style="stop-color:#CB4505"/>
	<stop  offset="0.83" style="stop-color:#AE2003"/>
	<stop  offset="0.95" style="stop-color:#950001"/>
</radialGradient>
<path style="fill:url(#SVGID_00000170998602116326743390000015286742762149449358_);" d="M200.7,103.9c-0.1,0.1-0.1,0.3-0.1,0.5
	c0,0-0.1,0.3,0,0.1s0.1-0.3,0.1-0.4s0.1-0.3,0.2-0.4C201.1,103.4,200.9,103.6,200.7,103.9z"/>
<radialGradient id="SVGID_00000019664090512413451420000012343620469680594354_" cx="190.58" cy="135.95" r="109.83" gradientTransform="matrix(1 0 0 -1 -2 175)" gradientUnits="userSpaceOnUse">
	<stop  offset="0" style="stop-color:#FF8709"/>
	<stop  offset="0.16" style="stop-color:#FC8309"/>
	<stop  offset="0.32" style="stop-color:#F27608"/>
	<stop  offset="0.49" style="stop-color:#E26207"/>
	<stop  offset="0.66" style="stop-color:#CB4505"/>
	<stop  offset="0.83" style="stop-color:#AE2003"/>
	<stop  offset="0.95" style="stop-color:#950001"/>
</radialGradient>
<path style="fill:url(#SVGID_00000019664090512413451420000012343620469680594354_);" d="M183.5,121.2l-0.6,0.4
	c0,0.1-0.1,0.2-0.2,0.3c-0.1,0.1-0.2,0.2-0.2,0.3c0,0.1,0.1,0,0.2-0.1s0.2-0.1,0.4-0.2s0.2-0.1,0.3-0.2s0.1-0.1,0.2-0.3
	S183.6,121.2,183.5,121.2z"/>
<radialGradient id="SVGID_00000133506172063791775140000016942972292986333360_" cx="190.58" cy="135.93" r="109.8" gradientTransform="matrix(1 0 0 -1 -2 175)" gradientUnits="userSpaceOnUse">
	<stop  offset="0" style="stop-color:#FF8709"/>
	<stop  offset="0.16" style="stop-color:#FC8309"/>
	<stop  offset="0.32" style="stop-color:#F27608"/>
	<stop  offset="0.49" style="stop-color:#E26207"/>
	<stop  offset="0.66" style="stop-color:#CB4505"/>
	<stop  offset="0.83" style="stop-color:#AE2003"/>
	<stop  offset="0.95" style="stop-color:#950001"/>
</radialGradient>
<path style="fill:url(#SVGID_00000133506172063791775140000016942972292986333360_);" d="M164.6,124.4c-0.1,0.2-0.3,0.3-0.5,0.3
	c-0.2,0-0.2-0.1-0.3-0.1s-0.1,0.2-0.3,0.4s-0.1,0-0.3,0c-0.1,0,0.3,0.2,0.6,0s0.2,0,0.4,0s0.1-0.1,0.3-0.1s-0.1-0.1,0.1-0.1
	s0.2-0.3,0.3-0.4C164.9,124.2,164.7,124.3,164.6,124.4z"/>
<polygon class="st0" points="133.4,69.2 153.7,69.2 133.4,86.8 133.4,92.7 162.6,92.7 162.6,86.8 142.3,86.8 162.6,69.3 162.6,63.4 
	133.4,63.4 "/>
<polygon class="st0" points="111.8,75 103.5,63.4 96.2,63.4 108.9,80.9 108.9,92.7 114.7,92.7 114.7,80.9 127.4,63.4 120.2,63.4 "/>
<rect x="170.8" y="63.4" class="st0" width="29.2" height="5.8"/>
<polygon class="st0" points="170.8,75.1 170.8,92.7 200,92.7 200,86.8 176.6,86.8 176.6,80.9 200,80.9 200,75.1 "/>
<path class="st0" d="M67.8,81h10.8l6.8,11.7h6.8L85.4,81l0,0c3.2,0,5.8-2.6,5.8-5.8v-5.9c0-3.2-2.6-5.8-5.8-5.8H62v5.8h23
	c0.2,0,0.4,0.2,0.4,0.4v5c0,0.2-0.2,0.4-0.4,0.4H62v17.6h5.8V81z"/>
<polygon class="st0" points="232.3,63.4 232.3,83.7 214.8,63.4 208.9,63.4 208.9,92.6 214.7,92.6 214.7,72.3 232.2,92.6 238.1,92.6 
	238.1,63.4 "/>
<rect x="52" y="15" class="st34" width="196" height="162"/>
</svg>
