<?xml version="1.0" encoding="UTF-8" standalone="no"?>
<!-- Created with Inkscape (http://www.inkscape.org/) -->

<svg
   version="1.1"
   id="svg2"
   width="569.15997"
   height="236.57333"
   viewBox="0 0 569.15997 236.57333"
   sodipodi:docname="hewlett-packard-enterprise-seeklogo.eps"
   xmlns:inkscape="http://www.inkscape.org/namespaces/inkscape"
   xmlns:sodipodi="http://sodipodi.sourceforge.net/DTD/sodipodi-0.dtd"
   xmlns="http://www.w3.org/2000/svg"
   xmlns:svg="http://www.w3.org/2000/svg">
  <defs
     id="defs6" />
  <sodipodi:namedview
     id="namedview4"
     pagecolor="#ffffff"
     bordercolor="#000000"
     borderopacity="0.25"
     inkscape:showpageshadow="2"
     inkscape:pageopacity="0.0"
     inkscape:pagecheckerboard="0"
     inkscape:deskcolor="#d1d1d1" />
  <g
     id="g8"
     inkscape:groupmode="layer"
     inkscape:label="ink_ext_XXXXXX"
     transform="matrix(1.3333333,0,0,-1.3333333,0,236.57333)">
    <g
       id="g10"
       transform="scale(0.1)">
      <path
         d="M 96.3789,1449.28 H 1370 V 1677.9 H 96.3789 Z M 1466.38,1352.9 H 0 v 421.38 H 1466.38 V 1352.9"
         style="fill:#33b887;fill-opacity:1;fill-rule:nonzero;stroke:none"
         id="path12" />
      <path
         d="M 354.563,1087.33 V 682.121 H 270.09 V 852.387 H 86.6211 V 682.121 H 2.14844 V 1087.33 H 86.6211 V 926.301 H 270.09 v 161.029 h 84.473"
         style="fill:#231f20;fill-opacity:1;fill-rule:nonzero;stroke:none"
         id="path14" />
      <path
         d="m 491.816,864.27 h 111.536 c -1.985,31.671 -19.797,54.113 -52.141,54.113 -27.051,0 -50.156,-17.16 -59.395,-54.113 z m -2.636,-53.457 c 6.601,-48.172 41.582,-67.985 85.136,-67.985 32.332,0 55.43,7.274 84.473,25.75 v -67.316 c -24.426,-17.821 -57.422,-25.742 -97.012,-25.742 -89.757,0 -151.132,58.082 -151.132,151.789 0,92.39 58.078,156.406 138.593,156.406 85.789,0 130.008,-59.395 130.008,-146.504 V 810.813 H 489.18"
         style="fill:#231f20;fill-opacity:1;fill-rule:nonzero;stroke:none"
         id="path16" />
      <path
         d="m 997.336,789.035 52.794,188.078 h 79.2 l -89.76,-294.992 h -75.234 l -48.176,180.82 -48.172,-180.82 h -75.234 l -89.758,294.992 h 81.84 l 52.793,-188.078 48.172,188.078 h 62.695 l 48.84,-188.078"
         style="fill:#231f20;fill-opacity:1;fill-rule:nonzero;stroke:none"
         id="path18" />
      <path
         d="m 1429.36,864.27 h 111.53 c -1.98,31.671 -19.8,54.113 -52.14,54.113 -27.05,0 -50.16,-17.16 -59.39,-54.113 z m -2.64,-53.457 c 6.6,-48.172 41.58,-67.985 85.14,-67.985 32.33,0 55.43,7.274 84.47,25.75 v -67.316 c -24.43,-17.821 -57.42,-25.742 -97.01,-25.742 -89.76,0 -151.14,58.082 -151.14,151.789 0,92.39 58.08,156.406 138.6,156.406 85.79,0 130.01,-59.395 130.01,-146.504 v -26.398 h -190.07"
         style="fill:#231f20;fill-opacity:1;fill-rule:nonzero;stroke:none"
         id="path20" />
      <path
         d="m 2357.78,1015.39 h -75.89 V 894.621 h 75.89 c 43.56,0 64.68,25.078 64.68,60.059 0,36.3 -21.12,60.71 -64.68,60.71 z M 2281.89,822.688 V 682.121 h -83.81 v 405.209 h 164.99 c 85.79,0 142.55,-46.19 142.55,-132.65 0,-85.789 -56.76,-131.992 -142.55,-131.992 h -81.18"
         style="fill:#231f20;fill-opacity:1;fill-rule:nonzero;stroke:none"
         id="path22" />
      <path
         d="m 2706.23,783.754 c -7.26,15.84 -29.03,25.742 -52.13,25.742 -25.74,0 -52.14,-11.223 -52.14,-36.297 0,-25.75 26.4,-36.301 52.14,-36.301 23.1,0 44.87,9.903 52.13,25.743 z m 0,82.488 c 0,28.379 -24.41,46.203 -65.99,46.203 -29.69,0 -57.42,-8.586 -80.51,-23.761 v 70.617 c 21.12,13.191 59.39,24.414 98.33,24.414 81.17,0 126.71,-41.574 126.71,-113.508 V 682.121 h -78.54 v 15.84 c -9.89,-9.902 -38.94,-21.121 -71.27,-21.121 -59.39,0 -108.89,34.308 -108.89,95.691 0,56.094 49.5,94.375 114.17,94.375 25.74,0 54.12,-8.582 65.99,-17.156 v 16.492"
         style="fill:#231f20;fill-opacity:1;fill-rule:nonzero;stroke:none"
         id="path24" />
      <path
         d="m 2993.42,983.715 c 29.7,0 58.73,-6.602 79.85,-23.098 v -74.57 c -19.8,17.812 -43.56,26.398 -69.96,26.398 -43.55,0 -77.87,-30.363 -77.87,-83.156 0,-52.137 34.32,-83.148 77.87,-83.148 26.4,0 50.16,9.23 69.96,26.39 v -73.91 c -21.12,-16.5 -50.15,-23.101 -79.85,-23.101 -83.82,0 -149.15,59.39 -149.15,153.769 0,95.031 65.33,154.426 149.15,154.426"
         style="fill:#231f20;fill-opacity:1;fill-rule:nonzero;stroke:none"
         id="path26" />
      <path
         d="m 3423.81,682.121 h -95.69 L 3221.87,818.07 V 682.121 h -81.84 v 428.969 h 81.84 V 860.305 l 100.96,116.808 h 98.34 L 3298.42,841.828 3423.81,682.121"
         style="fill:#231f20;fill-opacity:1;fill-rule:nonzero;stroke:none"
         id="path28" />
      <path
         d="m 3615.85,783.754 c -7.26,15.84 -29.03,25.742 -52.13,25.742 -25.74,0 -52.14,-11.223 -52.14,-36.297 0,-25.75 26.4,-36.301 52.14,-36.301 23.1,0 44.87,9.903 52.13,25.743 z m 0,82.488 c 0,28.379 -24.41,46.203 -65.99,46.203 -29.69,0 -57.42,-8.586 -80.51,-23.761 v 70.617 c 21.12,13.191 59.39,24.414 98.33,24.414 81.17,0 126.7,-41.574 126.7,-113.508 V 682.121 h -78.53 v 15.84 c -9.89,-9.902 -38.94,-21.121 -71.27,-21.121 -59.39,0 -108.89,34.308 -108.89,95.691 0,56.094 49.5,94.375 114.17,94.375 25.74,0 54.11,-8.582 65.99,-17.156 v 16.492"
         style="fill:#231f20;fill-opacity:1;fill-rule:nonzero;stroke:none"
         id="path30" />
      <path
         d="m 3951.21,896.605 c -11.22,6.602 -25.74,9.903 -40.92,9.903 -27.71,0 -50.15,-14.524 -56.09,-41.582 V 682.121 h -81.84 v 294.992 h 81.84 v -29.035 c 12.54,21.113 36.95,35.637 66,35.637 13.85,0 26.39,-2.637 31.01,-5.274 v -81.836"
         style="fill:#231f20;fill-opacity:1;fill-rule:nonzero;stroke:none"
         id="path32" />
      <path
         d="m 4186.16,878.129 c -9.24,19.793 -31.68,34.316 -55.43,34.316 -44.22,0 -70.61,-35.636 -70.61,-83.156 0,-46.855 26.39,-82.488 70.61,-82.488 24.42,0 46.19,13.859 55.43,34.316 z m 0,-171.59 c -13.19,-15.828 -42.23,-31.019 -73.91,-31.019 -85.79,0 -133.97,69.3 -133.97,153.769 0,84.473 48.18,154.426 133.97,154.426 31.68,0 60.72,-15.176 73.91,-31.016 v 158.391 h 82.49 V 682.121 h -82.49 v 24.418"
         style="fill:#231f20;fill-opacity:1;fill-rule:nonzero;stroke:none"
         id="path34" />
      <path
         d="m 1304.31,732.449 c -24.66,0 -39.67,13.492 -40.16,39.672 h 1.23 v 312.309 h -81.84 v -292.309 -20 -4.019 c 0,-66.661 41.58,-104.942 104.27,-104.942 19.14,0 33.66,2.629 45.54,7.93 v 69.289 c -8.58,-5.949 -19.14,-7.93 -29.04,-7.93"
         style="fill:#231f20;fill-opacity:1;fill-rule:nonzero;stroke:none"
         id="path36" />
      <path
         d="m 1978.71,897.758 h 74.48 v 66.66 h -74.48 v 120.012 h -81.83 V 964.418 h -118.17 v 120.012 h -81.83 V 964.418 h -53.69 v -66.66 h 53.69 v -105.637 -20 -4.019 c 0,-66.661 41.58,-104.942 104.27,-104.942 19.13,0 33.65,2.629 45.53,7.93 v 69.289 c -8.57,-5.949 -19.13,-7.93 -29.03,-7.93 -24.67,0 -39.68,13.492 -40.17,39.672 h 1.23 v 125.637 h 118.17 v -105.637 -20 -4.019 c 0,-66.661 41.57,-104.942 104.26,-104.942 19.14,0 33.67,2.629 45.55,7.93 v 69.289 c -8.59,-5.949 -19.14,-7.93 -29.04,-7.93 -24.67,0 -39.68,13.492 -40.17,39.672 h 1.23 v 125.637"
         style="fill:#231f20;fill-opacity:1;fill-rule:nonzero;stroke:none"
         id="path38" />
      <path
         d="M 266.758,521.352 V 474.801 H 58.6211 V 345.789 H 247.48 V 299.238 H 58.6211 V 160.27 H 266.758 V 113.051 H 6.75781 V 521.352 H 266.758"
         style="fill:#231f20;fill-opacity:1;fill-rule:nonzero;stroke:none"
         id="path40" />
      <path
         d="m 345.234,408.301 h 49.871 v -37.242 c 17.297,23.281 49.211,43.222 87.114,43.222 67.168,0 103.738,-43.222 103.738,-107.722 V 113.051 h -50.535 v 185.527 c 0,41.231 -20.617,69.82 -65.168,69.82 -34.578,0 -64.5,-23.269 -75.149,-55.187 v -200.16 h -49.871 v 295.25"
         style="fill:#231f20;fill-opacity:1;fill-rule:nonzero;stroke:none"
         id="path42" />
      <path
         d="m 907.156,291.262 h 152.274 c -1.99,43.226 -23.93,80.457 -71.813,80.457 -39.226,0 -71.152,-25.93 -80.461,-80.457 z m -2.664,-39.231 c 2,-68.492 45.227,-101.082 99.078,-101.082 33.26,0 57.2,7.981 83.79,27.93 V 133 c -23.93,-18.621 -54.52,-25.941 -89.762,-25.941 -85.118,0 -142.305,57.851 -142.305,150.953 0,91.769 53.191,156.269 131.66,156.269 79.797,0 121.027,-57.851 121.027,-144.301 V 252.031 H 904.492"
         style="fill:#231f20;fill-opacity:1;fill-rule:nonzero;stroke:none"
         id="path44" />
      <path
         d="m 1327.43,358.43 c -7.98,5.308 -20.61,7.98 -33.25,7.98 -31.25,0 -58.52,-20.621 -68.49,-55.199 v -198.16 h -49.87 v 295.25 h 49.87 V 369.73 c 12.63,25.27 40.56,44.551 73.15,44.551 12.63,0 23.27,-1.992 28.59,-4.652 V 358.43"
         style="fill:#231f20;fill-opacity:1;fill-rule:nonzero;stroke:none"
         id="path46" />
      <path
         d="m 1429.15,200.82 c 15.29,-30.582 44.55,-48.531 75.8,-48.531 56.52,0 89.78,45.883 89.78,108.391 0,62.511 -33.26,108.39 -89.78,108.39 -31.25,0 -60.51,-17.949 -75.8,-48.55 z m 0,-200.82 h -49.87 v 408.301 h 49.87 v -34.582 c 15.29,21.281 46.54,40.562 83.12,40.562 87.11,0 132.99,-71.82 132.99,-153.601 0,-81.801 -45.88,-153.621 -132.99,-153.621 -36.58,0 -67.83,19.293 -83.12,40.57 V 0"
         style="fill:#231f20;fill-opacity:1;fill-rule:nonzero;stroke:none"
         id="path48" />
      <path
         d="m 1874.72,358.43 c -7.98,5.308 -20.61,7.98 -33.25,7.98 -31.26,0 -58.52,-20.621 -68.49,-55.199 v -198.16 h -49.87 v 295.25 h 49.87 V 369.73 c 12.64,25.27 40.56,44.551 73.14,44.551 12.64,0 23.28,-1.992 28.6,-4.652 V 358.43"
         style="fill:#231f20;fill-opacity:1;fill-rule:nonzero;stroke:none"
         id="path50" />
      <path
         d="m 1986.45,113.051 h -49.88 v 295.25 h 49.88 z m -25.28,352.437 c -17.28,0 -31.91,14.633 -31.91,31.91 0,17.961 14.63,31.93 31.91,31.93 17.96,0 32.59,-13.969 32.59,-31.93 0,-17.277 -14.63,-31.91 -32.59,-31.91"
         style="fill:#231f20;fill-opacity:1;fill-rule:nonzero;stroke:none"
         id="path52" />
      <path
         d="m 2058.26,189.52 c 27.27,-25.27 61.18,-39.899 97.09,-39.899 32.59,0 61.18,11.969 61.18,41.231 0,21.949 -16.63,33.918 -42.56,42.558 l -40.56,13.969 c -44.55,14.621 -74.48,35.902 -74.48,83.781 0,51.871 45.88,83.121 104.4,83.121 33.25,0 63.84,-9.312 87.78,-25.929 V 336.48 c -24.61,20.61 -51.87,35.239 -87.78,35.239 -30.59,0 -55.86,-13.289 -55.86,-38.559 0,-23.941 15.97,-31.922 43.89,-41.898 l 45.22,-15.293 c 44.55,-15.289 69.16,-41.231 69.16,-83.129 0,-54.52 -48.54,-85.781 -110.39,-85.781 -38.56,0 -75.14,11.98 -97.09,29.261 v 53.2"
         style="fill:#231f20;fill-opacity:1;fill-rule:nonzero;stroke:none"
         id="path54" />
      <path
         d="m 2367.48,291.262 h 152.28 c -2,43.226 -23.94,80.457 -71.82,80.457 -39.24,0 -71.15,-25.93 -80.46,-80.457 z m -2.67,-39.231 c 2,-68.492 45.23,-101.082 99.09,-101.082 33.25,0 57.18,7.981 83.79,27.93 V 133 c -23.94,-18.621 -54.54,-25.941 -89.78,-25.941 -85.12,0 -142.3,57.851 -142.3,150.953 0,91.769 53.2,156.269 131.67,156.269 79.79,0 121.02,-57.851 121.02,-144.301 v -17.949 h -203.49"
         style="fill:#231f20;fill-opacity:1;fill-rule:nonzero;stroke:none"
         id="path56" />
      <path
         d="m 790.496,150.949 c -29.258,0 -48.531,18.61 -48.531,53.871 v 25.5 h 1.226 v 135.758 h 78.332 v 41.672 h -78.332 v 73.328 H 692.754 V 407.75 h -67.891 v -41.672 h 67.891 V 230.32 200.809 c 0,-59.18 38.562,-93.75 90.43,-93.75 15.964,0 27.265,2 38.574,6.64 v 45.242 c -9.309,-6 -20.613,-7.992 -31.262,-7.992"
         style="fill:#231f20;fill-opacity:1;fill-rule:nonzero;stroke:none"
         id="path58" />
    </g>
  </g>
</svg>
