<?xml version="1.0" encoding="UTF-8" standalone="no"?>
<!-- Created with Inkscape (http://www.inkscape.org/) -->

<svg
   version="1.1"
   id="svg2"
   width="755.38666"
   height="755.41333"
   viewBox="0 0 755.38666 755.41333"
   sodipodi:docname="hp-seeklogo.eps"
   xmlns:inkscape="http://www.inkscape.org/namespaces/inkscape"
   xmlns:sodipodi="http://sodipodi.sourceforge.net/DTD/sodipodi-0.dtd"
   xmlns="http://www.w3.org/2000/svg"
   xmlns:svg="http://www.w3.org/2000/svg">
  <defs
     id="defs6" />
  <sodipodi:namedview
     id="namedview4"
     pagecolor="#ffffff"
     bordercolor="#000000"
     borderopacity="0.25"
     inkscape:showpageshadow="2"
     inkscape:pageopacity="0.0"
     inkscape:pagecheckerboard="0"
     inkscape:deskcolor="#d1d1d1" />
  <g
     id="g8"
     inkscape:groupmode="layer"
     inkscape:label="ink_ext_XXXXXX"
     transform="matrix(1.3333333,0,0,-1.3333333,0,755.41333)">
    <g
       id="g10"
       transform="scale(0.1)">
      <path
         d="m 2832.37,0 c -27.84,0 -55.95,0.53125 -83.9,1.37891 L 3327.43,1592.47 h 796.45 c 140.06,0 293.65,107.41 341.36,238.82 l 627.97,1725.15 c 102.96,282.58 -58.63,513.44 -359.59,513.44 H 3628.39 L 2701.07,1521.56 h -0.27 L 2174.92,77.1523 C 927.863,373.371 0,1494.94 0,2832.78 0,4132.14 875.02,5227.37 2068.08,5561.04 L 1525.47,4069.88 h -0.27 L 623.375,1592.47 h 600.435 l 767,2105.11 h 451.18 l -767,-2105.11 600.02,-0.27 714.73,1964.24 c 102.78,282.58 -58.89,513.44 -359.2,513.44 H 2125.9 l 579.34,1592.48 c 42.31,2.14 84.7,3.21 127.13,3.21 1564.9,0 2833.05,-1268.26 2833.05,-2832.79 C 5665.42,1268.57 4397.27,0 2832.37,0 Z M 4546.53,3699.19 H 4095.66 L 3464.01,1965.84 h 450.91 l 631.61,1733.35 v 0"
         style="fill:#43a3e0;fill-opacity:1;fill-rule:evenodd;stroke:none"
         id="path12" />
    </g>
  </g>
</svg>
