<?xml version="1.0" encoding="utf-8"?>
<!-- Generator: Adobe Illustrator 16.0.0, SVG Export Plug-In . SVG Version: 6.00 Build 0)  -->
<!DOCTYPE svg PUBLIC "-//W3C//DTD SVG 1.1//EN" "http://www.w3.org/Graphics/SVG/1.1/DTD/svg11.dtd">
<svg version="1.1" id="Layer_1" xmlns="http://www.w3.org/2000/svg" xmlns:xlink="http://www.w3.org/1999/xlink" x="0px" y="0px"
	 width="1390px" height="220px" viewBox="0 0 1390 220" enable-background="new 0 0 1390 220" xml:space="preserve">
<g>
	<g id="TOPdesk">
		<g>
			<g>
				<polygon fill="#008EAF" points="268.512,4.244 268.512,38.917 325.146,38.917 325.146,215.754 365.021,215.754 365.021,38.917 
					422.233,38.917 422.233,4.244 				"/>
			</g>
			<g>
				<path fill="#008EAF" d="M630.276,215.754h39.875v-71.08c0,0,19.073,0,32.942,0c40.451,0,66.455-36.989,66.455-78.594
					c0-39.297-27.16-61.256-65.875-61.256h-73.397V215.754z M696.736,112.312c-9.824,0-26.584,0-26.584,0V38.917
					c9.823-2.309,28.317-1.735,36.405-1.153c15.609,1.734,22.541,11.558,22.541,31.203
					C729.098,88.04,725.053,112.312,696.736,112.312z"/>
			</g>
			<g>
				<path fill="#008EAF" d="M886.287,4.244v60.105c-2.887-5.206-20.229-8.671-35.828-8.671c-48.545,0-71.66,30.05-71.66,80.904
					c0,42.763,31.203,78.595,72.234,78.595h46.809h28.316c0-12.711,0-211.511,0-211.511L886.287,4.244L886.287,4.244z
					 M886.287,182.814h-30.629c-21.959,0-38.721-20.804-38.721-53.166c0-24.851,12.711-42.765,37.564-42.765
					c21.381,0,32.365,11.558,32.365,27.74v68.19H886.287z"/>
			</g>
			<g>
				<polygon fill="#008EAF" points="1315.084,129.648 1380.965,55.678 1333.578,55.678 1276.945,123.867 1276.945,4.244 
					1237.068,4.244 1237.068,215.754 1276.945,215.754 1276.945,137.163 1340.514,215.754 1388.477,215.754 				"/>
			</g>
			<g>
				<path fill="#008EAF" d="M518.743,1.934c-61.259,0-96.51,50.857-96.51,112.11c0,64.148,43.342,104.022,92.465,104.022
					c61.256,0,96.508-47.386,96.508-110.382C611.207,47.009,569.599,1.934,518.743,1.934z M518.165,182.238
					c-34.098,0-54.322-26.584-54.322-73.973c0-44.499,20.224-71.083,51.432-71.083c36.987,0,54.324,28.319,54.324,76.862
					C569.599,155.077,548.213,182.238,518.165,182.238z"/>
			</g>
			<path fill="#008EAF" d="M1133.629,131.382"/>
			<g>
				<g>
					<path fill="#008EAF" d="M1010.535,153.342h-25.428c2.887,19.648,20.805,31.787,43.34,31.787
						c16.186,0,36.408-4.046,48.543-15.604v12.713v13.864c-1.729,2.316-15.021,21.964-56.055,20.809
						c-38.715,0-76.279-30.628-76.279-78.015c0-51.438,31.783-84.375,75.703-84.375c32.359,0,61.832,23.113,61.832,60.103
						C1083.346,144.674,1061.969,153.342,1010.535,153.342z M1018.047,88.04c-18.496,0-31.783,15.027-32.365,32.941v5.199h17.342
						c36.41,0,44.496-4.047,44.496-15.023C1046.945,96.129,1035.383,88.04,1018.047,88.04z"/>
				</g>
			</g>
			<g>
				<g>
					<path fill="#008EAF" d="M1153.271,218.066c-23.691,0-42.758-10.978-49.695-20.804v-27.16l0,0
						c8.092,7.51,29.473,14.445,47.963,14.445c19.074,0,28.322-5.203,28.322-16.758c0-8.668-5.205-13.292-32.365-16.76
						c-32.941-4.621-48.545-17.336-48.545-41.03c0-28.894,26.01-53.744,65.881-53.744c21.385,0,34.678,6.934,42.189,15.027v27.74
						l0,0c-9.248-5.781-23.697-9.827-38.721-9.827c-23.691,0-31.211,6.934-31.211,17.335c0,7.513,4.627,10.983,31.211,15.023
						c32.365,5.203,49.127,19.073,49.127,43.924C1218.002,198.419,1194.885,218.066,1153.271,218.066z"/>
				</g>
			</g>
		</g>
	</g>
	<g id="Symbol">
		<path fill="#0082AB" d="M1198.354,57.99"/>
		<g>
			<g>
				<path fill="#C24530" d="M77.806,110L1.523,33.717l0,0c42.189-42.186,110.38-42.186,152.567,0l0,0L77.806,110z"/>
			</g>
			<g>
				<path fill="#E65038" d="M154.09,186.283L154.09,186.283L230.372,110L154.09,33.717L77.806,110L1.523,186.283
					C43.712,228.472,111.903,228.472,154.09,186.283z"/>
			</g>
		</g>
	</g>
</g>
</svg>
