<?xml version="1.0" encoding="UTF-8" standalone="no"?>
<!-- Created with Inkscape (http://www.inkscape.org/) -->

<svg
   version="1.1"
   id="svg2"
   width="546.71997"
   height="122.77333"
   viewBox="0 0 546.71997 122.77333"
   sodipodi:docname="ubuntu-seeklogo.eps"
   xmlns:inkscape="http://www.inkscape.org/namespaces/inkscape"
   xmlns:sodipodi="http://sodipodi.sourceforge.net/DTD/sodipodi-0.dtd"
   xmlns="http://www.w3.org/2000/svg"
   xmlns:svg="http://www.w3.org/2000/svg">
  <defs
     id="defs6" />
  <sodipodi:namedview
     id="namedview4"
     pagecolor="#ffffff"
     bordercolor="#000000"
     borderopacity="0.25"
     inkscape:showpageshadow="2"
     inkscape:pageopacity="0.0"
     inkscape:pagecheckerboard="0"
     inkscape:deskcolor="#d1d1d1" />
  <g
     id="g8"
     inkscape:groupmode="layer"
     inkscape:label="ink_ext_XXXXXX"
     transform="matrix(1.3333333,0,0,-1.3333333,0,122.77333)">
    <g
       id="g10"
       transform="scale(0.1)">
      <path
         d="m 3854.95,920.852 c 135.52,0 245.41,-109.872 245.41,-245.399 0,-135.531 -109.89,-245.398 -245.41,-245.398 -135.53,0 -245.39,109.867 -245.39,245.398 0,135.527 109.86,245.399 245.39,245.399"
         style="fill:#de3a21;fill-opacity:1;fill-rule:nonzero;stroke:none"
         id="path12" />
      <path
         d="m 3922.02,791.613 c 15.66,-9.054 35.7,-3.699 44.72,11.977 9.07,15.672 3.71,35.703 -11.97,44.754 -15.68,9.039 -35.7,3.672 -44.74,-12 -9.05,-15.664 -3.7,-35.696 11.99,-44.731 z m -67.07,-211.855 c -14.4,0 -28.07,3.203 -40.3,8.902 l -22.77,-40.793 c 19,-9.418 40.43,-14.742 63.07,-14.742 13.18,0 25.93,1.828 38.02,5.176 2.15,13.168 9.96,25.289 22.43,32.484 12.44,7.184 26.81,7.887 39.27,3.184 24.22,23.824 40,56.226 42.29,92.316 l -46.7,0.688 c -4.3,-48.895 -45.31,-87.215 -95.31,-87.215 z m 0,191.402 c 50,0 91.03,-38.328 95.33,-87.215 l 46.68,0.688 c -2.31,36.09 -18.07,68.488 -42.29,92.316 -12.46,-4.703 -26.85,-3.984 -39.29,3.184 -12.46,7.191 -20.28,19.32 -22.41,32.484 -12.11,3.34 -24.84,5.172 -38.02,5.172 -22.66,0 -44.07,-5.316 -63.07,-14.73 l 22.75,-40.797 c 12.25,5.691 25.92,8.898 40.32,8.898 z m -95.69,-95.707 c 0,32.375 16.08,60.985 40.69,78.301 L 3776,793.871 c -28.67,-19.16 -50,-48.437 -58.85,-82.726 10.34,-8.446 16.96,-21.29 16.96,-35.692 0,-14.387 -6.62,-27.238 -16.96,-35.676 8.85,-34.308 30.18,-63.586 58.85,-82.746 l 23.95,40.129 c -24.61,17.309 -40.69,45.906 -40.69,78.293 z m 162.76,-116.137 c -15.69,-9.058 -21.04,-29.082 -11.99,-44.746 9.04,-15.668 29.06,-21.043 44.74,-11.988 15.68,9.039 21.04,29.063 11.99,44.738 -9.04,15.66 -29.08,21.035 -44.74,11.996 z m -233.93,148.907 c -18.1,0 -32.77,-14.664 -32.77,-32.77 0,-18.094 14.67,-32.762 32.77,-32.762 18.09,0 32.76,14.668 32.76,32.762 0,18.106 -14.67,32.77 -32.76,32.77"
         style="fill:#ffffff;fill-opacity:1;fill-rule:nonzero;stroke:none"
         id="path14" />
      <path
         d="M 490.785,31.5547 C 465.852,25.3086 432.945,18.6953 392.051,11.6914 351.148,4.66797 303.824,1.17188 250.063,1.17188 203.324,1.17188 163.977,8.00391 132.039,21.6133 100.09,35.2344 74.3789,54.5273 54.9219,79.457 35.4336,104.387 21.418,133.805 12.8516,167.695 4.27344,201.574 0,239.145 0,280.445 V 621.656 H 108.676 V 303.813 c 0,-74.016 11.687,-126.981 35.058,-158.915 23.371,-31.957 62.704,-47.9214 118.024,-47.9214 11.683,0 23.754,0.3867 36.226,1.1836 12.45,0.7578 24.133,1.7461 35.059,2.9138 10.898,1.168 20.828,2.336 29.793,3.5 8.945,1.164 15.371,2.516 19.281,4.082 v 513 h 108.68 V 31.5547 h -0.012"
         style="fill:#100f0d;fill-opacity:1;fill-rule:nonzero;stroke:none"
         id="path16" />
      <path
         d="m 756.039,108.668 c 10.899,-3.117 26.297,-6.035 46.164,-8.75 19.863,-2.7461 44.582,-4.0977 74.199,-4.0977 58.426,0 105.164,19.2777 140.228,57.8357 35.05,38.574 52.58,93.293 52.58,164.196 0,31.136 -3.12,60.355 -9.35,87.636 -6.24,27.262 -16.35,50.832 -30.38,70.696 -14.02,19.867 -32.136,35.449 -54.339,46.746 -22.2,11.285 -48.899,16.941 -80.047,16.941 -29.614,0 -56.871,-5.074 -81.793,-15.187 -24.946,-10.137 -44.024,-20.657 -57.262,-31.547 V 108.668 Z m 0,486.117 c 13.238,8.567 33.309,17.531 60.176,26.871 26.883,9.356 57.844,14.024 92.902,14.024 43.621,0 82.375,-7.785 116.273,-23.36 33.89,-15.597 62.52,-37.398 85.88,-65.449 23.38,-28.043 41.08,-61.543 53.18,-100.488 12.06,-38.965 18.11,-81.797 18.11,-128.535 0,-49.082 -7.22,-93.305 -21.62,-132.645 -14.42,-39.332 -34.87,-72.64 -61.35,-99.8983 C 1073.1,58.0234 1041.16,36.9961 1003.77,22.2031 966.379,7.41016 924.309,0 877.563,0 826.914,0 782.129,3.49609 743.184,10.5195 704.223,17.5313 672.285,24.5313 647.363,31.5469 V 902.125 l 108.676,18.688 V 594.785"
         style="fill:#100f0d;fill-opacity:1;fill-rule:nonzero;stroke:none"
         id="path18" />
      <path
         d="m 1789.02,31.5547 c -24.94,-6.2461 -57.84,-12.8594 -98.74,-19.8633 -40.9,-7.02343 -88.22,-10.51952 -141.98,-10.51952 -46.75,0 -86.08,6.83203 -118.02,20.44142 -31.96,13.6211 -57.66,32.914 -77.13,57.8437 -19.48,24.93 -33.5,54.348 -42.07,88.238 -8.57,33.891 -12.85,71.457 -12.85,112.758 V 621.656 H 1406.9 V 303.813 c 0,-74.016 11.69,-126.981 35.06,-158.915 23.37,-31.957 62.7,-47.9214 118.02,-47.9214 11.68,0 23.76,0.3867 36.23,1.1836 12.45,0.7578 24.13,1.7461 35.05,2.9138 10.9,1.168 20.84,2.336 29.8,3.5 8.94,1.164 15.38,2.516 19.28,4.082 v 513 h 108.67 V 31.5547 h 0.01"
         style="fill:#100f0d;fill-opacity:1;fill-rule:nonzero;stroke:none"
         id="path20" />
      <path
         d="m 1945.59,604.133 c 24.92,6.234 58.03,12.855 99.34,19.875 41.29,7.004 88.79,10.504 142.54,10.504 48.32,0 88.41,-6.821 120.37,-20.438 31.93,-13.644 57.44,-32.715 76.54,-57.258 19.06,-24.539 32.52,-53.964 40.31,-88.23 7.78,-34.289 11.68,-72.078 11.68,-113.356 V 14.0195 H 2327.7 V 331.871 c 0,37.383 -2.54,69.317 -7.6,95.809 -5.08,26.48 -13.42,47.91 -25.11,64.269 -11.68,16.367 -27.29,28.239 -46.76,35.645 -19.48,7.402 -43.64,11.109 -72.43,11.109 -11.69,0 -23.78,-0.406 -36.22,-1.172 -12.49,-0.785 -24.36,-1.758 -35.65,-2.929 -11.31,-1.164 -21.44,-2.539 -30.38,-4.09 -8.97,-1.571 -15.4,-2.739 -19.29,-3.5 V 14.0273 h -108.67 v 590.1057 0"
         style="fill:#100f0d;fill-opacity:1;fill-rule:nonzero;stroke:none"
         id="path22" />
      <path
         d="m 2687.61,621.656 h 230.21 V 530.512 H 2687.61 V 250.07 c 0,-30.379 2.33,-55.504 7,-75.363 4.68,-19.883 11.68,-35.465 21.04,-46.754 9.35,-11.301 21.03,-19.285 35.06,-23.953 14.02,-4.668 30.37,-7.0156 49.06,-7.0156 33.5,0 60,3.6916 79.47,11.1016 19.48,7.398 32.74,12.652 39.75,15.773 l 23.36,-88.8082 c -10.92,-5.457 -30.2,-12.4766 -57.85,-21.0313 -27.66,-8.56637 -59.01,-12.85153 -94.07,-12.85153 -41.28,0 -75.36,5.25391 -102.24,15.76953 -26.89,10.5195 -48.5,26.2969 -64.86,47.332 -16.35,21.0352 -27.86,46.9255 -34.47,77.7075 -6.63,30.761 -9.94,66.398 -9.94,106.921 v 542.207 l 108.68,18.692 V 621.656 h 0.01"
         style="fill:#100f0d;fill-opacity:1;fill-rule:nonzero;stroke:none"
         id="path24" />
      <path
         d="m 3509.09,31.5547 c -24.94,-6.2461 -57.85,-12.8594 -98.75,-19.8633 -40.9,-7.02343 -88.21,-10.51952 -141.98,-10.51952 -46.73,0 -86.09,6.83203 -118.02,20.44142 -31.96,13.6211 -57.66,32.914 -77.13,57.8437 -19.47,24.93 -33.5,54.348 -42.07,88.238 -8.58,33.891 -12.85,71.457 -12.85,112.758 v 341.203 h 108.67 V 303.813 c 0,-74.016 11.7,-126.981 35.06,-158.915 23.38,-31.957 62.69,-47.9214 118.02,-47.9214 11.68,0 23.75,0.3867 36.24,1.1836 12.44,0.7578 24.14,1.7461 35.03,2.9138 10.92,1.168 20.84,2.336 29.81,3.5 8.94,1.164 15.37,2.516 19.3,4.082 v 513 h 108.67 v -590.1013 0"
         style="fill:#100f0d;fill-opacity:1;fill-rule:nonzero;stroke:none"
         id="path26" />
    </g>
  </g>
</svg>
